<svg xmlns="http://www.w3.org/2000/svg" id="_图层_1" data-name="图层 1" viewBox="0 0 290 231">
  <defs>
    <style>
      .cls-1 {
        stroke-width: 2px;
      }

      .cls-1, .cls-2 {
        fill: none;
        stroke: #231815;
        stroke-miterlimit: 10;
      }

      .cls-3 {
        fill: #231815;
        stroke-width: 0px;
      }
    </style>
  </defs>
  <line class="cls-2" x1="63.94" y1="30.39" x2="242.33" y2="30.39"/>
  <line class="cls-2" x1="85.94" y1="26.05" x2="85.94" y2="202.05"/>
  <line class="cls-2" x1="102.58" y1="26.05" x2="102.58" y2="202.05"/>
  <line class="cls-2" x1="119.67" y1="26.05" x2="119.67" y2="202.05"/>
  <line class="cls-2" x1="136.56" y1="26.05" x2="136.56" y2="202.05"/>
  <line class="cls-2" x1="153.44" y1="26.05" x2="153.44" y2="202.05"/>
  <line class="cls-2" x1="170.33" y1="26.05" x2="170.33" y2="202.05"/>
  <line class="cls-2" x1="187.22" y1="26.05" x2="187.22" y2="202.05"/>
  <line class="cls-2" x1="204.11" y1="26.05" x2="204.11" y2="202.05"/>
  <line class="cls-2" x1="221" y1="26.05" x2="221" y2="202.05"/>
  <line class="cls-2" x1="237.89" y1="26.05" x2="237.89" y2="202.05"/>
  <line class="cls-2" x1="63.94" y1="46.89" x2="242.33" y2="46.89"/>
  <line class="cls-2" x1="63.94" y1="64.39" x2="242.33" y2="64.39"/>
  <path class="cls-1" d="M70,198.16c49.67,3.89,116.67-61.16,165.67-172.11"/>
  <line class="cls-2" x1="63.94" y1="80.89" x2="242.33" y2="80.89"/>
  <line class="cls-2" x1="63.94" y1="97.39" x2="242.33" y2="97.39"/>
  <line class="cls-2" x1="63.94" y1="114.89" x2="242.33" y2="114.89"/>
  <line class="cls-2" x1="63.94" y1="131.39" x2="242.33" y2="131.39"/>
  <line class="cls-2" x1="63.94" y1="147.89" x2="242.33" y2="147.89"/>
  <line class="cls-2" x1="63.94" y1="165.39" x2="242.33" y2="165.39"/>
  <line class="cls-2" x1="63.94" y1="181.89" x2="242.33" y2="181.89"/>
  <path class="cls-3" d="M83.35,210.27v-.38c1.62-.09,1.71-.17,1.71-1.13v-4.92c0-.66-.13-.69-.77-.75l-.67-.06v-.34c1-.14,2.03-.35,2.81-.64v6.71c0,.98.09,1.04,1.72,1.13v.38h-4.78Z"/>
  <g>
    <path class="cls-3" d="M49.39,180.28l.09.11-.4.93h-3.45c-.13.68-.32,1.67-.46,2.28.59-.19,1.41-.38,1.78-.38,1.83,0,2.8,1.11,2.8,2.2,0,.78-.38,1.54-1.31,2.19-.81.56-1.85.9-2.65.9-.68,0-1.24-.23-1.54-.49-.22-.18-.28-.28-.26-.45,0-.13.13-.35.34-.48.14-.08.28-.1.44.01.42.33.95.73,1.88.73,1.18,0,1.74-.89,1.74-1.86,0-1.14-.8-1.95-2.38-1.95-.62,0-1.1.12-1.49.23l-.05-.06c.23-1.04.56-2.83.74-3.9h4.18Z"/>
    <path class="cls-3" d="M53.6,180.13c2.27,0,3.1,2.2,3.1,4.18s-.83,4.19-3.1,4.19-3.13-2.17-3.13-4.18c0-1.89.85-4.19,3.13-4.19ZM53.59,180.6c-1.31,0-1.63,1.9-1.63,3.69s.39,3.74,1.64,3.74,1.6-1.92,1.6-3.73-.36-3.7-1.61-3.7Z"/>
    <path class="cls-3" d="M60.29,180.13c2.27,0,3.1,2.2,3.1,4.18s-.83,4.19-3.1,4.19-3.13-2.17-3.13-4.18c0-1.89.85-4.19,3.13-4.19ZM60.28,180.6c-1.31,0-1.63,1.9-1.63,3.69s.4,3.74,1.64,3.74,1.6-1.92,1.6-3.73-.36-3.7-1.61-3.7Z"/>
  </g>
  <g>
    <path class="cls-3" d="M37.06,171.23v-.38c1.62-.09,1.71-.17,1.71-1.13v-4.92c0-.66-.13-.69-.77-.75l-.67-.06v-.34c1-.14,2.03-.35,2.81-.64v6.71c0,.98.09,1.04,1.72,1.13v.38h-4.78Z"/>
    <path class="cls-3" d="M42.41,172.42c.7-.28,1.22-.64,1.22-1.14,0-.45-.42-.6-.99-.72-.09-.01-.24-.18-.24-.43,0-.34.3-.68.87-.68s1.31.46,1.31,1.42c0,1.06-1.07,1.71-1.99,1.94l-.19-.39Z"/>
    <path class="cls-3" d="M47.96,163.01c2.27,0,3.1,2.2,3.1,4.18s-.83,4.19-3.1,4.19-3.13-2.17-3.13-4.18c0-1.89.85-4.19,3.13-4.19ZM47.95,163.49c-1.31,0-1.63,1.9-1.63,3.69s.39,3.74,1.64,3.74,1.6-1.92,1.6-3.73-.36-3.7-1.61-3.7Z"/>
    <path class="cls-3" d="M54,163.01c2.27,0,3.1,2.2,3.1,4.18s-.83,4.19-3.1,4.19-3.13-2.17-3.13-4.18c0-1.89.85-4.19,3.13-4.19ZM54,163.49c-1.31,0-1.63,1.9-1.63,3.69s.39,3.74,1.64,3.74,1.6-1.92,1.6-3.73-.36-3.7-1.61-3.7Z"/>
    <path class="cls-3" d="M60.04,163.01c2.27,0,3.1,2.2,3.1,4.18s-.83,4.19-3.1,4.19-3.13-2.17-3.13-4.18c0-1.89.85-4.19,3.13-4.19ZM60.04,163.49c-1.31,0-1.63,1.9-1.63,3.69s.39,3.74,1.64,3.74,1.6-1.92,1.6-3.73-.36-3.7-1.61-3.7Z"/>
  </g>
  <g>
    <path class="cls-3" d="M37.06,154.57v-.38c1.62-.09,1.71-.17,1.71-1.13v-4.92c0-.66-.13-.69-.77-.75l-.67-.06v-.34c1-.14,2.03-.35,2.81-.64v6.71c0,.98.09,1.04,1.72,1.13v.38h-4.78Z"/>
    <path class="cls-3" d="M42.41,155.76c.7-.28,1.22-.64,1.22-1.14,0-.45-.42-.6-.99-.72-.09-.01-.24-.18-.24-.43,0-.34.3-.68.87-.68s1.31.46,1.31,1.42c0,1.06-1.07,1.71-1.99,1.94l-.19-.39Z"/>
    <path class="cls-3" d="M50.44,146.5l.09.11-.4.93h-3.45c-.13.68-.33,1.67-.46,2.28.59-.19,1.41-.38,1.78-.38,1.83,0,2.8,1.11,2.8,2.2,0,.78-.38,1.54-1.31,2.19-.82.56-1.85.9-2.65.9-.67,0-1.24-.23-1.54-.49-.23-.18-.28-.28-.26-.45,0-.13.13-.35.34-.48.14-.08.29-.1.44.01.42.33.95.73,1.87.73,1.18,0,1.74-.89,1.74-1.86,0-1.14-.8-1.95-2.39-1.95-.62,0-1.1.12-1.49.23l-.05-.06c.24-1.04.57-2.83.74-3.9h4.18Z"/>
    <path class="cls-3" d="M54,146.35c2.27,0,3.1,2.2,3.1,4.18s-.83,4.19-3.1,4.19-3.13-2.17-3.13-4.18c0-1.89.85-4.19,3.13-4.19ZM54,146.82c-1.31,0-1.63,1.9-1.63,3.69s.39,3.74,1.64,3.74,1.6-1.92,1.6-3.73-.36-3.7-1.61-3.7Z"/>
    <path class="cls-3" d="M60.04,146.35c2.27,0,3.1,2.2,3.1,4.18s-.83,4.19-3.1,4.19-3.13-2.17-3.13-4.18c0-1.89.85-4.19,3.13-4.19ZM60.04,146.82c-1.31,0-1.63,1.9-1.63,3.69s.39,3.74,1.64,3.74,1.6-1.92,1.6-3.73-.36-3.7-1.61-3.7Z"/>
  </g>
  <g>
    <path class="cls-3" d="M42.47,135.1c-.2.6-.46,1.31-.6,1.8h-5.64v-.32c.81-.69,1.69-1.46,2.42-2.2.96-.98,1.78-1.99,1.78-3.09,0-1.05-.63-1.66-1.69-1.66-1,0-1.63.67-2.03,1.19l-.36-.28.86-1.08c.47-.46,1.2-.78,2.07-.78,1.42,0,2.55.85,2.55,2.25,0,1.08-.46,1.85-1.88,3.1-.62.56-1.54,1.33-2.15,1.84h2.76c.82,0,1.03-.06,1.54-.88l.38.11Z"/>
    <path class="cls-3" d="M42.41,138.09c.7-.28,1.22-.64,1.22-1.14,0-.45-.42-.6-.99-.72-.09-.01-.24-.18-.24-.43,0-.34.3-.68.87-.68s1.31.46,1.31,1.42c0,1.06-1.07,1.71-1.99,1.94l-.19-.39Z"/>
    <path class="cls-3" d="M47.96,128.68c2.27,0,3.1,2.2,3.1,4.18s-.83,4.19-3.1,4.19-3.13-2.17-3.13-4.18c0-1.89.85-4.19,3.13-4.19ZM47.95,129.15c-1.31,0-1.63,1.9-1.63,3.69s.39,3.74,1.64,3.74,1.6-1.92,1.6-3.73-.36-3.7-1.61-3.7Z"/>
    <path class="cls-3" d="M54,128.68c2.27,0,3.1,2.2,3.1,4.18s-.83,4.19-3.1,4.19-3.13-2.17-3.13-4.18c0-1.89.85-4.19,3.13-4.19ZM54,129.15c-1.31,0-1.63,1.9-1.63,3.69s.39,3.74,1.64,3.74,1.6-1.92,1.6-3.73-.36-3.7-1.61-3.7Z"/>
    <path class="cls-3" d="M60.04,128.68c2.27,0,3.1,2.2,3.1,4.18s-.83,4.19-3.1,4.19-3.13-2.17-3.13-4.18c0-1.89.85-4.19,3.13-4.19ZM60.04,129.15c-1.31,0-1.63,1.9-1.63,3.69s.39,3.74,1.64,3.74,1.6-1.92,1.6-3.73-.36-3.7-1.61-3.7Z"/>
  </g>
  <g>
    <path class="cls-3" d="M42.47,118.44c-.2.6-.46,1.31-.6,1.8h-5.64v-.32c.81-.69,1.69-1.46,2.42-2.2.96-.98,1.78-1.99,1.78-3.09,0-1.05-.63-1.66-1.69-1.66-1,0-1.63.67-2.03,1.19l-.36-.28.86-1.08c.47-.46,1.2-.78,2.07-.78,1.42,0,2.55.85,2.55,2.25,0,1.08-.46,1.85-1.88,3.1-.62.56-1.54,1.33-2.15,1.84h2.76c.82,0,1.03-.06,1.54-.88l.38.11Z"/>
    <path class="cls-3" d="M42.41,121.42c.7-.28,1.22-.64,1.22-1.14,0-.45-.42-.6-.99-.72-.09-.01-.24-.18-.24-.43,0-.34.3-.68.87-.68s1.31.46,1.31,1.42c0,1.06-1.07,1.71-1.99,1.94l-.19-.39Z"/>
    <path class="cls-3" d="M50.44,112.17l.09.11-.4.93h-3.45c-.13.68-.33,1.67-.46,2.28.59-.19,1.41-.38,1.78-.38,1.83,0,2.8,1.11,2.8,2.2,0,.78-.38,1.54-1.31,2.19-.82.56-1.85.9-2.65.9-.67,0-1.24-.23-1.54-.49-.23-.18-.28-.28-.26-.45,0-.13.13-.35.34-.48.14-.08.29-.1.44.01.42.33.95.73,1.87.73,1.18,0,1.74-.89,1.74-1.86,0-1.14-.8-1.95-2.39-1.95-.62,0-1.1.12-1.49.23l-.05-.06c.24-1.04.57-2.83.74-3.9h4.18Z"/>
    <path class="cls-3" d="M54,112.01c2.27,0,3.1,2.2,3.1,4.18s-.83,4.19-3.1,4.19-3.13-2.17-3.13-4.18c0-1.89.85-4.19,3.13-4.19ZM54,112.49c-1.31,0-1.63,1.9-1.63,3.69s.39,3.74,1.64,3.74,1.6-1.92,1.6-3.73-.36-3.7-1.61-3.7Z"/>
    <path class="cls-3" d="M60.04,112.01c2.27,0,3.1,2.2,3.1,4.18s-.83,4.19-3.1,4.19-3.13-2.17-3.13-4.18c0-1.89.85-4.19,3.13-4.19ZM60.04,112.49c-1.31,0-1.63,1.9-1.63,3.69s.39,3.74,1.64,3.74,1.6-1.92,1.6-3.73-.36-3.7-1.61-3.7Z"/>
  </g>
  <g>
    <path class="cls-3" d="M36.54,96.92l.7-.82c.43-.41,1.11-.75,1.95-.75,1.38,0,2.27.76,2.27,1.74,0,.38-.2.7-.47.95-.24.22-.62.45-1.07.7,1.4.26,2.22,1.04,2.22,1.99,0,2.1-2.91,3-3.94,3-.7,0-1.33-.25-1.55-.45-.19-.17-.25-.3-.25-.45.01-.21.21-.42.35-.52.13-.09.28-.09.42.02.39.3,1,.71,1.85.71,1.01,0,1.73-.66,1.73-1.9-.01-1.19-1.01-1.66-1.93-1.66-.33,0-.73.07-.96.13l-.1-.4c1.32-.38,2.33-.88,2.33-1.83,0-.77-.57-1.2-1.39-1.2s-1.42.5-1.83,1.02l-.33-.27Z"/>
    <path class="cls-3" d="M42.41,104.76c.7-.28,1.22-.64,1.22-1.14,0-.45-.42-.6-.99-.72-.09-.01-.24-.18-.24-.43,0-.34.3-.68.87-.68s1.31.46,1.31,1.42c0,1.06-1.07,1.71-1.99,1.94l-.19-.39Z"/>
    <path class="cls-3" d="M47.96,95.35c2.27,0,3.1,2.2,3.1,4.18s-.83,4.19-3.1,4.19-3.13-2.17-3.13-4.18c0-1.89.85-4.19,3.13-4.19ZM47.95,95.82c-1.31,0-1.63,1.9-1.63,3.69s.39,3.74,1.64,3.74,1.6-1.92,1.6-3.73-.36-3.7-1.61-3.7Z"/>
    <path class="cls-3" d="M54,95.35c2.27,0,3.1,2.2,3.1,4.18s-.83,4.19-3.1,4.19-3.13-2.17-3.13-4.18c0-1.89.85-4.19,3.13-4.19ZM54,95.82c-1.31,0-1.63,1.9-1.63,3.69s.39,3.74,1.64,3.74,1.6-1.92,1.6-3.73-.36-3.7-1.61-3.7Z"/>
    <path class="cls-3" d="M60.04,95.35c2.27,0,3.1,2.2,3.1,4.18s-.83,4.19-3.1,4.19-3.13-2.17-3.13-4.18c0-1.89.85-4.19,3.13-4.19ZM60.04,95.82c-1.31,0-1.63,1.9-1.63,3.69s.39,3.74,1.64,3.74,1.6-1.92,1.6-3.73-.36-3.7-1.61-3.7Z"/>
  </g>
  <g>
    <path class="cls-3" d="M36.54,80.26l.7-.82c.43-.41,1.11-.75,1.95-.75,1.38,0,2.27.76,2.27,1.74,0,.38-.2.7-.47.95-.24.22-.62.45-1.07.7,1.4.26,2.22,1.04,2.22,1.99,0,2.1-2.91,3-3.94,3-.7,0-1.33-.25-1.55-.45-.19-.17-.25-.3-.25-.45.01-.21.21-.42.35-.52.13-.09.28-.09.42.02.39.3,1,.71,1.85.71,1.01,0,1.73-.66,1.73-1.9-.01-1.19-1.01-1.66-1.93-1.66-.33,0-.73.07-.96.13l-.1-.4c1.32-.38,2.33-.88,2.33-1.83,0-.77-.57-1.2-1.39-1.2s-1.42.5-1.83,1.02l-.33-.27Z"/>
    <path class="cls-3" d="M42.41,88.09c.7-.28,1.22-.64,1.22-1.14,0-.45-.42-.6-.99-.72-.09-.01-.24-.18-.24-.43,0-.34.3-.68.87-.68s1.31.46,1.31,1.42c0,1.06-1.07,1.71-1.99,1.94l-.19-.39Z"/>
    <path class="cls-3" d="M50.44,78.84l.09.11-.4.93h-3.45c-.13.68-.33,1.67-.46,2.28.59-.19,1.41-.38,1.78-.38,1.83,0,2.8,1.11,2.8,2.2,0,.78-.38,1.54-1.31,2.19-.82.56-1.85.9-2.65.9-.67,0-1.24-.23-1.54-.49-.23-.18-.28-.28-.26-.45,0-.13.13-.35.34-.48.14-.08.29-.1.44.01.42.33.95.73,1.87.73,1.18,0,1.74-.89,1.74-1.86,0-1.14-.8-1.95-2.39-1.95-.62,0-1.1.12-1.49.23l-.05-.06c.24-1.04.57-2.83.74-3.9h4.18Z"/>
    <path class="cls-3" d="M54,78.68c2.27,0,3.1,2.2,3.1,4.18s-.83,4.19-3.1,4.19-3.13-2.17-3.13-4.18c0-1.89.85-4.19,3.13-4.19ZM54,79.15c-1.31,0-1.63,1.9-1.63,3.69s.39,3.74,1.64,3.74,1.6-1.92,1.6-3.73-.36-3.7-1.61-3.7Z"/>
    <path class="cls-3" d="M60.04,78.68c2.27,0,3.1,2.2,3.1,4.18s-.83,4.19-3.1,4.19-3.13-2.17-3.13-4.18c0-1.89.85-4.19,3.13-4.19ZM60.04,79.15c-1.31,0-1.63,1.9-1.63,3.69s.39,3.74,1.64,3.74,1.6-1.92,1.6-3.73-.36-3.7-1.61-3.7Z"/>
  </g>
  <g>
    <path class="cls-3" d="M41.21,67.9v.95c0,.84.06.91,1.13,1v.38h-3.59v-.38c1.09-.09,1.16-.18,1.16-1.02v-.93h-3.88v-.41c1.43-1.77,3-3.69,4.44-5.42h.74v5.19h1.43v.64h-1.43ZM39.91,63.49c-.89,1.13-1.92,2.44-2.94,3.76h2.94v-3.76Z"/>
    <path class="cls-3" d="M42.41,71.42c.7-.28,1.22-.64,1.22-1.14,0-.45-.42-.6-.99-.72-.09-.01-.24-.18-.24-.43,0-.34.3-.68.87-.68s1.31.46,1.31,1.42c0,1.06-1.07,1.71-1.99,1.94l-.19-.39Z"/>
    <path class="cls-3" d="M47.96,62.01c2.27,0,3.1,2.2,3.1,4.18s-.83,4.19-3.1,4.19-3.13-2.17-3.13-4.18c0-1.89.85-4.19,3.13-4.19ZM47.95,62.49c-1.31,0-1.63,1.9-1.63,3.69s.39,3.74,1.64,3.74,1.6-1.92,1.6-3.73-.36-3.7-1.61-3.7Z"/>
    <path class="cls-3" d="M54,62.01c2.27,0,3.1,2.2,3.1,4.18s-.83,4.19-3.1,4.19-3.13-2.17-3.13-4.18c0-1.89.85-4.19,3.13-4.19ZM54,62.49c-1.31,0-1.63,1.9-1.63,3.69s.39,3.74,1.64,3.74,1.6-1.92,1.6-3.73-.36-3.7-1.61-3.7Z"/>
    <path class="cls-3" d="M60.04,62.01c2.27,0,3.1,2.2,3.1,4.18s-.83,4.19-3.1,4.19-3.13-2.17-3.13-4.18c0-1.89.85-4.19,3.13-4.19ZM60.04,62.49c-1.31,0-1.63,1.9-1.63,3.69s.39,3.74,1.64,3.74,1.6-1.92,1.6-3.73-.36-3.7-1.61-3.7Z"/>
  </g>
  <g>
    <path class="cls-3" d="M41.21,50.23v.95c0,.84.06.91,1.13,1v.38h-3.59v-.38c1.09-.09,1.16-.18,1.16-1.02v-.93h-3.88v-.41c1.43-1.77,3-3.69,4.44-5.42h.74v5.19h1.43v.64h-1.43ZM39.91,45.83c-.89,1.13-1.92,2.44-2.94,3.76h2.94v-3.76Z"/>
    <path class="cls-3" d="M42.41,53.76c.7-.28,1.22-.64,1.22-1.14,0-.45-.42-.6-.99-.72-.09-.01-.24-.18-.24-.43,0-.34.3-.68.87-.68s1.31.46,1.31,1.42c0,1.06-1.07,1.71-1.99,1.94l-.19-.39Z"/>
    <path class="cls-3" d="M50.44,44.5l.09.11-.4.93h-3.45c-.13.68-.33,1.67-.46,2.28.59-.19,1.41-.38,1.78-.38,1.83,0,2.8,1.11,2.8,2.2,0,.78-.38,1.54-1.31,2.19-.82.56-1.85.9-2.65.9-.67,0-1.24-.23-1.54-.49-.23-.18-.28-.28-.26-.45,0-.13.13-.35.34-.48.14-.08.29-.1.44.01.42.33.95.73,1.87.73,1.18,0,1.74-.89,1.74-1.86,0-1.14-.8-1.95-2.39-1.95-.62,0-1.1.12-1.49.23l-.05-.06c.24-1.04.57-2.83.74-3.9h4.18Z"/>
    <path class="cls-3" d="M54,44.35c2.27,0,3.1,2.2,3.1,4.18s-.83,4.19-3.1,4.19-3.13-2.17-3.13-4.18c0-1.89.85-4.19,3.13-4.19ZM54,44.82c-1.31,0-1.63,1.9-1.63,3.69s.39,3.74,1.64,3.74,1.6-1.92,1.6-3.73-.36-3.7-1.61-3.7Z"/>
    <path class="cls-3" d="M60.04,44.35c2.27,0,3.1,2.2,3.1,4.18s-.83,4.19-3.1,4.19-3.13-2.17-3.13-4.18c0-1.89.85-4.19,3.13-4.19ZM60.04,44.82c-1.31,0-1.63,1.9-1.63,3.69s.39,3.74,1.64,3.74,1.6-1.92,1.6-3.73-.36-3.7-1.61-3.7Z"/>
  </g>
  <g>
    <path class="cls-3" d="M41.85,28.84l.09.11-.4.93h-3.45c-.13.68-.32,1.67-.46,2.28.59-.19,1.41-.38,1.78-.38,1.83,0,2.8,1.11,2.8,2.2,0,.78-.38,1.54-1.31,2.19-.81.56-1.85.9-2.65.9-.68,0-1.24-.23-1.54-.49-.22-.18-.28-.28-.26-.45,0-.13.13-.35.34-.48.14-.08.28-.1.44.01.42.33.95.73,1.88.73,1.18,0,1.74-.89,1.74-1.86,0-1.14-.8-1.95-2.38-1.95-.62,0-1.1.12-1.49.23l-.05-.06c.23-1.04.56-2.83.74-3.9h4.18Z"/>
    <path class="cls-3" d="M42.41,38.09c.7-.28,1.22-.64,1.22-1.14,0-.45-.42-.6-.99-.72-.09-.01-.24-.18-.24-.43,0-.34.3-.68.87-.68s1.31.46,1.31,1.42c0,1.06-1.07,1.71-1.99,1.94l-.19-.39Z"/>
    <path class="cls-3" d="M47.96,28.68c2.27,0,3.1,2.2,3.1,4.18s-.83,4.19-3.1,4.19-3.13-2.17-3.13-4.18c0-1.89.85-4.19,3.13-4.19ZM47.95,29.15c-1.31,0-1.63,1.9-1.63,3.69s.39,3.74,1.64,3.74,1.6-1.92,1.6-3.73-.36-3.7-1.61-3.7Z"/>
    <path class="cls-3" d="M54,28.68c2.27,0,3.1,2.2,3.1,4.18s-.83,4.19-3.1,4.19-3.13-2.17-3.13-4.18c0-1.89.85-4.19,3.13-4.19ZM54,29.15c-1.31,0-1.63,1.9-1.63,3.69s.39,3.74,1.64,3.74,1.6-1.92,1.6-3.73-.36-3.7-1.61-3.7Z"/>
    <path class="cls-3" d="M60.04,28.68c2.27,0,3.1,2.2,3.1,4.18s-.83,4.19-3.1,4.19-3.13-2.17-3.13-4.18c0-1.89.85-4.19,3.13-4.19ZM60.04,29.15c-1.31,0-1.63,1.9-1.63,3.69s.39,3.74,1.64,3.74,1.6-1.92,1.6-3.73-.36-3.7-1.61-3.7Z"/>
  </g>
  <path class="cls-3" d="M105.71,208.48c-.2.6-.46,1.31-.6,1.8h-5.64v-.32c.81-.69,1.69-1.46,2.42-2.2.96-.98,1.78-1.99,1.78-3.09,0-1.05-.63-1.66-1.69-1.66-1,0-1.63.67-2.03,1.19l-.36-.28.86-1.08c.47-.46,1.2-.78,2.07-.78,1.42,0,2.55.85,2.55,2.25,0,1.08-.46,1.85-1.88,3.1-.62.56-1.54,1.33-2.15,1.84h2.76c.82,0,1.03-.06,1.54-.88l.38.11Z"/>
  <path class="cls-3" d="M116.72,203.63l.7-.82c.43-.41,1.11-.75,1.95-.75,1.38,0,2.27.76,2.27,1.74,0,.38-.2.7-.47.95-.24.22-.62.45-1.07.7,1.4.26,2.22,1.04,2.22,1.99,0,2.1-2.91,3-3.94,3-.7,0-1.33-.25-1.55-.45-.19-.17-.25-.3-.25-.45.01-.21.21-.42.35-.52.13-.09.28-.09.42.02.38.3,1,.71,1.85.71,1.01,0,1.73-.66,1.73-1.9-.01-1.19-1.01-1.66-1.93-1.66-.33,0-.73.07-.96.13l-.1-.4c1.32-.38,2.33-.88,2.33-1.83,0-.77-.57-1.2-1.39-1.2s-1.42.5-1.83,1.02l-.33-.27Z"/>
  <path class="cls-3" d="M138.33,207.94v.95c0,.84.06.91,1.13,1v.38h-3.59v-.38c1.09-.09,1.16-.18,1.16-1.02v-.93h-3.88v-.41c1.43-1.77,3-3.69,4.44-5.42h.74v5.19h1.43v.64h-1.43ZM137.04,203.54c-.89,1.13-1.92,2.44-2.94,3.76h2.94v-3.76Z"/>
  <path class="cls-3" d="M155.92,202.21l.09.11-.4.93h-3.45c-.13.68-.33,1.67-.46,2.28.59-.19,1.41-.38,1.78-.38,1.83,0,2.8,1.11,2.8,2.2,0,.78-.38,1.54-1.31,2.19-.82.56-1.85.9-2.65.9-.67,0-1.24-.23-1.54-.49-.23-.18-.28-.28-.26-.45,0-.13.13-.35.34-.48.14-.08.29-.1.44.01.42.33.95.73,1.87.73,1.18,0,1.74-.89,1.74-1.86,0-1.14-.8-1.95-2.39-1.95-.62,0-1.1.12-1.49.23l-.05-.06c.24-1.04.57-2.83.74-3.9h4.18Z"/>
  <path class="cls-3" d="M169.89,205.38c.32-.14.67-.22.95-.22,1.57,0,2.67,1.05,2.67,2.4,0,1.57-1.3,2.87-3.11,2.87s-3.12-1.25-3.12-3.25c0-2.66,2.31-4.32,4.08-4.85.35-.11,1.15-.26,1.76-.35l.09.44c-.46.09-1.15.26-1.61.44-.87.36-2.25,1.19-2.66,2.93l.95-.42ZM170.19,205.93c-.55,0-1.01.17-1.34.32-.06.23-.09.58-.09.91,0,1.63.69,2.79,1.89,2.79,1.11,0,1.44-1.05,1.44-1.91,0-1.1-.61-2.11-1.89-2.11Z"/>
  <path class="cls-3" d="M190.56,202.39c-1.42,2.62-2.81,5.24-4.23,7.91l-1.13.1-.11-.15c1.55-2.19,3.15-4.81,4.34-7h-3.15c-.97,0-1.04.11-1.44.95h-.48c.16-.78.23-1.43.3-1.99h5.8l.09.17Z"/>
  <path class="cls-3" d="M204.38,202.06c1.46,0,2.47.87,2.47,1.93,0,.38-.14.75-.43,1.04-.15.14-.57.4-1.2.8,1.02.49,2.01,1.11,2.01,2.24,0,1.54-1.62,2.37-3.03,2.37-1.7,0-2.92-.84-2.92-2.14,0-.65.33-1.01.67-1.26.25-.18.83-.52,1.33-.79-.94-.48-1.63-1.1-1.63-2.03,0-1.14,1.08-2.15,2.73-2.15ZM204.38,209.97c.96,0,1.55-.55,1.54-1.47,0-1.01-.94-1.5-2.18-2.04-.73.38-1.16.98-1.16,1.72,0,1.2.85,1.79,1.8,1.79ZM204.19,202.51c-.86,0-1.3.58-1.3,1.3,0,.93.73,1.29,1.88,1.81.53-.37.9-.81.9-1.56,0-1.1-.74-1.54-1.48-1.54Z"/>
  <path class="cls-3" d="M222.64,206.56l-.94.42c-.33.15-.61.2-.88.2-1.62,0-2.7-1.07-2.7-2.42,0-1.25,1.11-2.7,3.1-2.7s3.02,1.48,3.02,3.24c0,2.37-1.73,4.13-3.76,4.82-.6.21-1.4.32-1.83.35l-.12-.4c2.14-.37,3.64-1.58,4.11-3.51ZM221.01,202.53c-1.09,0-1.48.9-1.48,1.84,0,1.14.72,2.08,1.93,2.08.5,0,.95-.15,1.24-.34.05-.29.06-.61.06-.86,0-1.17-.38-2.72-1.75-2.72Z"/>
  <g>
    <path class="cls-3" d="M232.5,210.27v-.38c1.62-.09,1.71-.17,1.71-1.13v-4.92c0-.66-.13-.69-.77-.75l-.67-.06v-.34c1-.14,2.03-.35,2.81-.64v6.71c0,.98.09,1.04,1.72,1.13v.38h-4.79Z"/>
    <path class="cls-3" d="M241.5,202.06c2.27,0,3.1,2.2,3.1,4.18s-.83,4.19-3.1,4.19-3.13-2.17-3.13-4.18c0-1.89.85-4.19,3.13-4.19ZM241.5,202.53c-1.31,0-1.63,1.9-1.63,3.69s.4,3.74,1.64,3.74,1.6-1.92,1.6-3.73-.36-3.7-1.61-3.7Z"/>
  </g>
  <g>
    <line class="cls-1" x1="64.44" y1="198.84" x2="245.03" y2="198.84"/>
    <polygon class="cls-3" points="243.44 201.17 252.11 198.84 243.44 196.52 243.44 201.17"/>
  </g>
  <path class="cls-3" d="M252.85,197.8c.56-.92,1.12-1.4,1.52-1.4.35,0,.57.37.81,1.23l.18.64c.88-1.38,1.36-1.86,1.86-1.86.37,0,.56.3.55.6,0,.23-.18.54-.31.65-.11.1-.19.14-.29.14-.16-.02-.25-.35-.46-.35-.25,0-.65.44-1.21,1.33l.42,1.43c.19.63.33.9.5.9.15,0,.41-.17.8-.73l.21.33c-.58,1.04-1.22,1.45-1.63,1.45-.36,0-.61-.38-.9-1.38l-.25-.89c-.97,1.6-1.45,2.27-1.96,2.27-.33,0-.58-.27-.58-.67.02-.43.35-.82.57-.82.16,0,.28.36.47.36.2,0,.54-.38,1.36-1.64l-.28-1.04c-.2-.71-.32-.88-.44-.88-.11,0-.32.11-.68.64l-.25-.31Z"/>
  <path class="cls-3" d="M66.97,203.49c0,2.66-1.74,4.9-4.12,4.9-1.84,0-3.04-1.33-3.04-3.45,0-2.53,1.71-4.93,4.13-4.93,1.88,0,3.03,1.37,3.03,3.48ZM61.26,205.21c0,1.6.49,2.67,1.67,2.67,1.67,0,2.58-2.52,2.58-4.65,0-1.68-.43-2.71-1.65-2.71-1.55,0-2.6,2.39-2.6,4.69Z"/>
  <g>
    <line class="cls-1" x1="69" y1="202.87" x2="69" y2="23.87"/>
    <polygon class="cls-3" points="71.32 25.46 69 16.78 66.68 25.46 71.32 25.46"/>
  </g>
  <path class="cls-3" d="M66.99,10.72c.56-.69,1.47-1.35,2.09-1.35s.78.78.89,1.9c.11,1.06.15,2.17.2,2.93.74-.98,1.82-2.35,1.8-3.24,0-.29-.15-.58-.23-.74-.08-.17-.06-.28.06-.43.25-.27.61-.42.86-.42.36,0,.61.26.63.78,0,.37-.17.94-.55,1.53-1.22,1.87-3.31,4.41-5.18,6.24l-1.77.38-.15-.33c1.03-.56,2.4-1.51,3.19-2.41,0-.9-.19-2.81-.35-4.06-.11-.84-.26-1.04-.4-1.04-.15,0-.46.23-.85.62l-.26-.37Z"/>
</svg>