<svg xmlns="http://www.w3.org/2000/svg" id="_图层_1" data-name="图层 1" viewBox="0 0 296 231">
  <defs>
    <style>
      .cls-1 {
        stroke-width: 2px;
      }

      .cls-1, .cls-2 {
        fill: none;
        stroke: #231815;
        stroke-miterlimit: 10;
      }

      .cls-3 {
        fill: #231815;
        stroke-width: 0px;
      }
    </style>
  </defs>
  <line class="cls-2" x1="63.94" y1="34" x2="242.33" y2="34"/>
  <line class="cls-2" x1="85.94" y1="29.67" x2="85.94" y2="205.67"/>
  <line class="cls-2" x1="102.58" y1="29.67" x2="102.58" y2="205.67"/>
  <line class="cls-2" x1="119.67" y1="29.67" x2="119.67" y2="205.67"/>
  <line class="cls-2" x1="136.56" y1="29.67" x2="136.56" y2="205.67"/>
  <line class="cls-2" x1="153.44" y1="29.67" x2="153.44" y2="205.67"/>
  <line class="cls-2" x1="170.33" y1="29.67" x2="170.33" y2="205.67"/>
  <line class="cls-2" x1="187.22" y1="29.67" x2="187.22" y2="205.67"/>
  <line class="cls-2" x1="204.11" y1="29.67" x2="204.11" y2="205.67"/>
  <line class="cls-2" x1="221" y1="29.67" x2="221" y2="205.67"/>
  <line class="cls-2" x1="237.89" y1="29.67" x2="237.89" y2="205.67"/>
  <line class="cls-2" x1="63.94" y1="50.5" x2="242.33" y2="50.5"/>
  <line class="cls-2" x1="63.94" y1="68" x2="242.33" y2="68"/>
  <path class="cls-1" d="M70,201.78c30.12-1.03,61.13-56.69,93.1-172.11"/>
  <line class="cls-2" x1="63.94" y1="84.5" x2="242.33" y2="84.5"/>
  <line class="cls-2" x1="63.94" y1="101" x2="242.33" y2="101"/>
  <line class="cls-2" x1="63.94" y1="118.5" x2="242.33" y2="118.5"/>
  <line class="cls-2" x1="63.94" y1="135" x2="242.33" y2="135"/>
  <line class="cls-2" x1="63.94" y1="151.5" x2="242.33" y2="151.5"/>
  <line class="cls-2" x1="63.94" y1="169" x2="242.33" y2="169"/>
  <line class="cls-2" x1="63.94" y1="185.5" x2="242.33" y2="185.5"/>
  <path class="cls-3" d="M83.35,213.89v-.38c1.62-.09,1.71-.17,1.71-1.13v-4.92c0-.66-.13-.69-.77-.75l-.67-.06v-.34c1-.14,2.03-.35,2.81-.64v6.71c0,.98.09,1.04,1.72,1.13v.38h-4.78Z"/>
  <g>
    <path class="cls-3" d="M49.39,183.89l.09.11-.4.93h-3.45c-.13.68-.32,1.67-.46,2.28.59-.19,1.41-.38,1.78-.38,1.83,0,2.8,1.11,2.8,2.2,0,.78-.38,1.54-1.31,2.19-.81.56-1.85.9-2.65.9-.68,0-1.24-.23-1.54-.49-.23-.18-.28-.28-.26-.45,0-.13.13-.35.34-.48.14-.08.28-.1.44.01.42.33.95.73,1.87.73,1.18,0,1.74-.89,1.74-1.86,0-1.14-.8-1.95-2.39-1.95-.62,0-1.1.12-1.49.23l-.05-.06c.23-1.04.56-2.83.74-3.9h4.18Z"/>
    <path class="cls-3" d="M53.6,183.74c2.27,0,3.1,2.2,3.1,4.18s-.83,4.19-3.1,4.19-3.13-2.17-3.13-4.18c0-1.89.85-4.19,3.13-4.19ZM53.59,184.21c-1.31,0-1.63,1.9-1.63,3.69s.4,3.74,1.64,3.74,1.6-1.92,1.6-3.73-.36-3.7-1.61-3.7Z"/>
    <path class="cls-3" d="M60.29,183.74c2.27,0,3.1,2.2,3.1,4.18s-.83,4.19-3.1,4.19-3.13-2.17-3.13-4.18c0-1.89.85-4.19,3.13-4.19ZM60.28,184.21c-1.31,0-1.63,1.9-1.63,3.69s.4,3.74,1.64,3.74,1.6-1.92,1.6-3.73-.36-3.7-1.61-3.7Z"/>
  </g>
  <g>
    <path class="cls-3" d="M37.06,174.84v-.38c1.62-.09,1.71-.17,1.71-1.13v-4.92c0-.66-.13-.69-.77-.75l-.67-.06v-.34c1-.14,2.03-.35,2.81-.64v6.71c0,.98.09,1.04,1.72,1.13v.38h-4.78Z"/>
    <path class="cls-3" d="M42.41,176.04c.7-.28,1.22-.64,1.22-1.14,0-.45-.42-.6-.99-.72-.09-.01-.24-.18-.24-.43,0-.34.3-.68.87-.68s1.31.46,1.31,1.42c0,1.06-1.07,1.71-1.99,1.94l-.19-.39Z"/>
    <path class="cls-3" d="M47.96,166.63c2.27,0,3.1,2.2,3.1,4.18s-.83,4.19-3.1,4.19-3.13-2.17-3.13-4.18c0-1.89.85-4.19,3.13-4.19ZM47.95,167.1c-1.31,0-1.63,1.9-1.63,3.69s.4,3.74,1.64,3.74,1.6-1.92,1.6-3.73-.36-3.7-1.61-3.7Z"/>
    <path class="cls-3" d="M54,166.63c2.27,0,3.1,2.2,3.1,4.18s-.83,4.19-3.1,4.19-3.13-2.17-3.13-4.18c0-1.89.85-4.19,3.13-4.19ZM54,167.1c-1.31,0-1.63,1.9-1.63,3.69s.4,3.74,1.64,3.74,1.6-1.92,1.6-3.73-.36-3.7-1.61-3.7Z"/>
    <path class="cls-3" d="M60.04,166.63c2.27,0,3.1,2.2,3.1,4.18s-.83,4.19-3.1,4.19-3.13-2.17-3.13-4.18c0-1.89.85-4.19,3.13-4.19ZM60.04,167.1c-1.31,0-1.63,1.9-1.63,3.69s.4,3.74,1.64,3.74,1.6-1.92,1.6-3.73-.36-3.7-1.61-3.7Z"/>
  </g>
  <g>
    <path class="cls-3" d="M37.06,158.18v-.38c1.62-.09,1.71-.17,1.71-1.13v-4.92c0-.66-.13-.69-.77-.75l-.67-.06v-.34c1-.14,2.03-.35,2.81-.64v6.71c0,.98.09,1.04,1.72,1.13v.38h-4.78Z"/>
    <path class="cls-3" d="M42.41,159.37c.7-.28,1.22-.64,1.22-1.14,0-.45-.42-.6-.99-.72-.09-.01-.24-.18-.24-.43,0-.34.3-.68.87-.68s1.31.46,1.31,1.42c0,1.06-1.07,1.71-1.99,1.94l-.19-.39Z"/>
    <path class="cls-3" d="M50.44,150.12l.09.11-.4.93h-3.45c-.13.68-.32,1.67-.46,2.28.59-.19,1.41-.38,1.78-.38,1.83,0,2.8,1.11,2.8,2.2,0,.78-.38,1.54-1.31,2.19-.81.56-1.85.9-2.65.9-.68,0-1.24-.23-1.54-.49-.23-.18-.28-.28-.26-.45,0-.13.13-.35.34-.48.14-.08.28-.1.44.01.42.33.95.73,1.87.73,1.18,0,1.74-.89,1.74-1.86,0-1.14-.8-1.95-2.39-1.95-.62,0-1.1.12-1.49.23l-.05-.06c.23-1.04.56-2.83.74-3.9h4.18Z"/>
    <path class="cls-3" d="M54,149.96c2.27,0,3.1,2.2,3.1,4.18s-.83,4.19-3.1,4.19-3.13-2.17-3.13-4.18c0-1.89.85-4.19,3.13-4.19ZM54,150.43c-1.31,0-1.63,1.9-1.63,3.69s.4,3.74,1.64,3.74,1.6-1.92,1.6-3.73-.36-3.7-1.61-3.7Z"/>
    <path class="cls-3" d="M60.04,149.96c2.27,0,3.1,2.2,3.1,4.18s-.83,4.19-3.1,4.19-3.13-2.17-3.13-4.18c0-1.89.85-4.19,3.13-4.19ZM60.04,150.43c-1.31,0-1.63,1.9-1.63,3.69s.4,3.74,1.64,3.74,1.6-1.92,1.6-3.73-.36-3.7-1.61-3.7Z"/>
  </g>
  <g>
    <path class="cls-3" d="M42.47,138.72c-.2.6-.46,1.31-.6,1.8h-5.64v-.32c.81-.69,1.69-1.46,2.42-2.2.96-.98,1.78-1.99,1.78-3.09,0-1.05-.63-1.66-1.69-1.66-1,0-1.63.67-2.03,1.19l-.36-.28.86-1.08c.47-.46,1.2-.78,2.07-.78,1.42,0,2.55.85,2.55,2.25,0,1.08-.46,1.85-1.88,3.1-.62.56-1.54,1.33-2.15,1.84h2.76c.82,0,1.03-.06,1.54-.88l.38.11Z"/>
    <path class="cls-3" d="M42.41,141.7c.7-.28,1.22-.64,1.22-1.14,0-.45-.42-.6-.99-.72-.09-.01-.24-.18-.24-.43,0-.34.3-.68.87-.68s1.31.46,1.31,1.42c0,1.06-1.07,1.71-1.99,1.94l-.19-.39Z"/>
    <path class="cls-3" d="M47.96,132.29c2.27,0,3.1,2.2,3.1,4.18s-.83,4.19-3.1,4.19-3.13-2.17-3.13-4.18c0-1.89.85-4.19,3.13-4.19ZM47.95,132.77c-1.31,0-1.63,1.9-1.63,3.69s.4,3.74,1.64,3.74,1.6-1.92,1.6-3.73-.36-3.7-1.61-3.7Z"/>
    <path class="cls-3" d="M54,132.29c2.27,0,3.1,2.2,3.1,4.18s-.83,4.19-3.1,4.19-3.13-2.17-3.13-4.18c0-1.89.85-4.19,3.13-4.19ZM54,132.77c-1.31,0-1.63,1.9-1.63,3.69s.4,3.74,1.64,3.74,1.6-1.92,1.6-3.73-.36-3.7-1.61-3.7Z"/>
    <path class="cls-3" d="M60.04,132.29c2.27,0,3.1,2.2,3.1,4.18s-.83,4.19-3.1,4.19-3.13-2.17-3.13-4.18c0-1.89.85-4.19,3.13-4.19ZM60.04,132.77c-1.31,0-1.63,1.9-1.63,3.69s.4,3.74,1.64,3.74,1.6-1.92,1.6-3.73-.36-3.7-1.61-3.7Z"/>
  </g>
  <g>
    <path class="cls-3" d="M42.47,122.05c-.2.6-.46,1.31-.6,1.8h-5.64v-.32c.81-.69,1.69-1.46,2.42-2.2.96-.98,1.78-1.99,1.78-3.09,0-1.05-.63-1.66-1.69-1.66-1,0-1.63.67-2.03,1.19l-.36-.28.86-1.08c.47-.46,1.2-.78,2.07-.78,1.42,0,2.55.85,2.55,2.25,0,1.08-.46,1.85-1.88,3.1-.62.56-1.54,1.33-2.15,1.84h2.76c.82,0,1.03-.06,1.54-.88l.38.11Z"/>
    <path class="cls-3" d="M42.41,125.04c.7-.28,1.22-.64,1.22-1.14,0-.45-.42-.6-.99-.72-.09-.01-.24-.18-.24-.43,0-.34.3-.68.87-.68s1.31.46,1.31,1.42c0,1.06-1.07,1.71-1.99,1.94l-.19-.39Z"/>
    <path class="cls-3" d="M50.44,115.78l.09.11-.4.93h-3.45c-.13.68-.32,1.67-.46,2.28.59-.19,1.41-.38,1.78-.38,1.83,0,2.8,1.11,2.8,2.2,0,.78-.38,1.54-1.31,2.19-.81.56-1.85.9-2.65.9-.68,0-1.24-.23-1.54-.49-.23-.18-.28-.28-.26-.45,0-.13.13-.35.34-.48.14-.08.28-.1.44.01.42.33.95.73,1.87.73,1.18,0,1.74-.89,1.74-1.86,0-1.14-.8-1.95-2.39-1.95-.62,0-1.1.12-1.49.23l-.05-.06c.23-1.04.56-2.83.74-3.9h4.18Z"/>
    <path class="cls-3" d="M54,115.63c2.27,0,3.1,2.2,3.1,4.18s-.83,4.19-3.1,4.19-3.13-2.17-3.13-4.18c0-1.89.85-4.19,3.13-4.19ZM54,116.1c-1.31,0-1.63,1.9-1.63,3.69s.4,3.74,1.64,3.74,1.6-1.92,1.6-3.73-.36-3.7-1.61-3.7Z"/>
    <path class="cls-3" d="M60.04,115.63c2.27,0,3.1,2.2,3.1,4.18s-.83,4.19-3.1,4.19-3.13-2.17-3.13-4.18c0-1.89.85-4.19,3.13-4.19ZM60.04,116.1c-1.31,0-1.63,1.9-1.63,3.69s.4,3.74,1.64,3.74,1.6-1.92,1.6-3.73-.36-3.7-1.61-3.7Z"/>
  </g>
  <g>
    <path class="cls-3" d="M36.54,100.54l.7-.82c.43-.41,1.11-.75,1.95-.75,1.38,0,2.27.76,2.27,1.74,0,.38-.19.7-.47.95-.24.22-.62.45-1.06.7,1.4.26,2.22,1.04,2.22,1.99,0,2.1-2.91,3-3.94,3-.7,0-1.33-.25-1.55-.45-.19-.17-.25-.3-.25-.45.01-.21.21-.42.35-.52.13-.09.28-.09.42.02.39.3,1,.71,1.85.71,1.01,0,1.73-.66,1.73-1.9-.01-1.19-1.01-1.66-1.93-1.66-.33,0-.73.07-.96.13l-.1-.4c1.32-.38,2.33-.88,2.33-1.83,0-.77-.57-1.2-1.39-1.2s-1.42.5-1.84,1.02l-.33-.27Z"/>
    <path class="cls-3" d="M42.41,108.37c.7-.28,1.22-.64,1.22-1.14,0-.45-.42-.6-.99-.72-.09-.01-.24-.18-.24-.43,0-.34.3-.68.87-.68s1.31.46,1.31,1.42c0,1.06-1.07,1.71-1.99,1.94l-.19-.39Z"/>
    <path class="cls-3" d="M47.96,98.96c2.27,0,3.1,2.2,3.1,4.18s-.83,4.19-3.1,4.19-3.13-2.17-3.13-4.18c0-1.89.85-4.19,3.13-4.19ZM47.95,99.43c-1.31,0-1.63,1.9-1.63,3.69s.4,3.74,1.64,3.74,1.6-1.92,1.6-3.73-.36-3.7-1.61-3.7Z"/>
    <path class="cls-3" d="M54,98.96c2.27,0,3.1,2.2,3.1,4.18s-.83,4.19-3.1,4.19-3.13-2.17-3.13-4.18c0-1.89.85-4.19,3.13-4.19ZM54,99.43c-1.31,0-1.63,1.9-1.63,3.69s.4,3.74,1.64,3.74,1.6-1.92,1.6-3.73-.36-3.7-1.61-3.7Z"/>
    <path class="cls-3" d="M60.04,98.96c2.27,0,3.1,2.2,3.1,4.18s-.83,4.19-3.1,4.19-3.13-2.17-3.13-4.18c0-1.89.85-4.19,3.13-4.19ZM60.04,99.43c-1.31,0-1.63,1.9-1.63,3.69s.4,3.74,1.64,3.74,1.6-1.92,1.6-3.73-.36-3.7-1.61-3.7Z"/>
  </g>
  <g>
    <path class="cls-3" d="M36.54,83.87l.7-.82c.43-.41,1.11-.75,1.95-.75,1.38,0,2.27.76,2.27,1.74,0,.38-.19.7-.47.95-.24.22-.62.45-1.06.7,1.4.26,2.22,1.04,2.22,1.99,0,2.1-2.91,3-3.94,3-.7,0-1.33-.25-1.55-.45-.19-.17-.25-.3-.25-.45.01-.21.21-.42.35-.52.13-.09.28-.09.42.02.39.3,1,.71,1.85.71,1.01,0,1.73-.66,1.73-1.9-.01-1.19-1.01-1.66-1.93-1.66-.33,0-.73.07-.96.13l-.1-.4c1.32-.38,2.33-.88,2.33-1.83,0-.77-.57-1.2-1.39-1.2s-1.42.5-1.84,1.02l-.33-.27Z"/>
    <path class="cls-3" d="M42.41,91.7c.7-.28,1.22-.64,1.22-1.14,0-.45-.42-.6-.99-.72-.09-.01-.24-.18-.24-.43,0-.34.3-.68.87-.68s1.31.46,1.31,1.42c0,1.06-1.07,1.71-1.99,1.94l-.19-.39Z"/>
    <path class="cls-3" d="M50.44,82.45l.09.11-.4.93h-3.45c-.13.68-.32,1.67-.46,2.28.59-.19,1.41-.38,1.78-.38,1.83,0,2.8,1.11,2.8,2.2,0,.78-.38,1.54-1.31,2.19-.81.56-1.85.9-2.65.9-.68,0-1.24-.23-1.54-.49-.23-.18-.28-.28-.26-.45,0-.13.13-.35.34-.48.14-.08.28-.1.44.01.42.33.95.73,1.87.73,1.18,0,1.74-.89,1.74-1.86,0-1.14-.8-1.95-2.39-1.95-.62,0-1.1.12-1.49.23l-.05-.06c.23-1.04.56-2.83.74-3.9h4.18Z"/>
    <path class="cls-3" d="M54,82.3c2.27,0,3.1,2.2,3.1,4.18s-.83,4.19-3.1,4.19-3.13-2.17-3.13-4.18c0-1.89.85-4.19,3.13-4.19ZM54,82.77c-1.31,0-1.63,1.9-1.63,3.69s.4,3.74,1.64,3.74,1.6-1.92,1.6-3.73-.36-3.7-1.61-3.7Z"/>
    <path class="cls-3" d="M60.04,82.3c2.27,0,3.1,2.2,3.1,4.18s-.83,4.19-3.1,4.19-3.13-2.17-3.13-4.18c0-1.89.85-4.19,3.13-4.19ZM60.04,82.77c-1.31,0-1.63,1.9-1.63,3.69s.4,3.74,1.64,3.74,1.6-1.92,1.6-3.73-.36-3.7-1.61-3.7Z"/>
  </g>
  <g>
    <path class="cls-3" d="M41.21,71.51v.95c0,.84.06.91,1.13,1v.38h-3.59v-.38c1.09-.09,1.16-.18,1.16-1.02v-.93h-3.88v-.41c1.43-1.77,3-3.69,4.44-5.42h.74v5.19h1.43v.64h-1.43ZM39.91,67.11c-.89,1.13-1.92,2.44-2.94,3.76h2.94v-3.76Z"/>
    <path class="cls-3" d="M42.41,75.04c.7-.28,1.22-.64,1.22-1.14,0-.45-.42-.6-.99-.72-.09-.01-.24-.18-.24-.43,0-.34.3-.68.87-.68s1.31.46,1.31,1.42c0,1.06-1.07,1.71-1.99,1.94l-.19-.39Z"/>
    <path class="cls-3" d="M47.96,65.63c2.27,0,3.1,2.2,3.1,4.18s-.83,4.19-3.1,4.19-3.13-2.17-3.13-4.18c0-1.89.85-4.19,3.13-4.19ZM47.95,66.1c-1.31,0-1.63,1.9-1.63,3.69s.4,3.74,1.64,3.74,1.6-1.92,1.6-3.73-.36-3.7-1.61-3.7Z"/>
    <path class="cls-3" d="M54,65.63c2.27,0,3.1,2.2,3.1,4.18s-.83,4.19-3.1,4.19-3.13-2.17-3.13-4.18c0-1.89.85-4.19,3.13-4.19ZM54,66.1c-1.31,0-1.63,1.9-1.63,3.69s.4,3.74,1.64,3.74,1.6-1.92,1.6-3.73-.36-3.7-1.61-3.7Z"/>
    <path class="cls-3" d="M60.04,65.63c2.27,0,3.1,2.2,3.1,4.18s-.83,4.19-3.1,4.19-3.13-2.17-3.13-4.18c0-1.89.85-4.19,3.13-4.19ZM60.04,66.1c-1.31,0-1.63,1.9-1.63,3.69s.4,3.74,1.64,3.74,1.6-1.92,1.6-3.73-.36-3.7-1.61-3.7Z"/>
  </g>
  <g>
    <path class="cls-3" d="M41.21,53.84v.95c0,.84.06.91,1.13,1v.38h-3.59v-.38c1.09-.09,1.16-.18,1.16-1.02v-.93h-3.88v-.41c1.43-1.77,3-3.69,4.44-5.42h.74v5.19h1.43v.64h-1.43ZM39.91,49.44c-.89,1.13-1.92,2.44-2.94,3.76h2.94v-3.76Z"/>
    <path class="cls-3" d="M42.41,57.37c.7-.28,1.22-.64,1.22-1.14,0-.45-.42-.6-.99-.72-.09-.01-.24-.18-.24-.43,0-.34.3-.68.87-.68s1.31.46,1.31,1.42c0,1.06-1.07,1.71-1.99,1.94l-.19-.39Z"/>
    <path class="cls-3" d="M50.44,48.12l.09.11-.4.93h-3.45c-.13.68-.32,1.67-.46,2.28.59-.19,1.41-.38,1.78-.38,1.83,0,2.8,1.11,2.8,2.2,0,.78-.38,1.54-1.31,2.19-.81.56-1.85.9-2.65.9-.68,0-1.24-.23-1.54-.49-.23-.18-.28-.28-.26-.45,0-.13.13-.35.34-.48.14-.08.28-.1.44.01.42.33.95.73,1.87.73,1.18,0,1.74-.89,1.74-1.86,0-1.14-.8-1.95-2.39-1.95-.62,0-1.1.12-1.49.23l-.05-.06c.23-1.04.56-2.83.74-3.9h4.18Z"/>
    <path class="cls-3" d="M54,47.96c2.27,0,3.1,2.2,3.1,4.18s-.83,4.19-3.1,4.19-3.13-2.17-3.13-4.18c0-1.89.85-4.19,3.13-4.19ZM54,48.43c-1.31,0-1.63,1.9-1.63,3.69s.4,3.74,1.64,3.74,1.6-1.92,1.6-3.73-.36-3.7-1.61-3.7Z"/>
    <path class="cls-3" d="M60.04,47.96c2.27,0,3.1,2.2,3.1,4.18s-.83,4.19-3.1,4.19-3.13-2.17-3.13-4.18c0-1.89.85-4.19,3.13-4.19ZM60.04,48.43c-1.31,0-1.63,1.9-1.63,3.69s.4,3.74,1.64,3.74,1.6-1.92,1.6-3.73-.36-3.7-1.61-3.7Z"/>
  </g>
  <g>
    <path class="cls-3" d="M41.85,32.45l.09.11-.4.93h-3.45c-.13.68-.32,1.67-.46,2.28.59-.19,1.41-.38,1.78-.38,1.83,0,2.8,1.11,2.8,2.2,0,.78-.38,1.54-1.31,2.19-.81.56-1.85.9-2.65.9-.68,0-1.24-.23-1.54-.49-.23-.18-.28-.28-.26-.45,0-.13.13-.35.34-.48.14-.08.28-.1.44.01.42.33.95.73,1.87.73,1.18,0,1.74-.89,1.74-1.86,0-1.14-.8-1.95-2.39-1.95-.62,0-1.1.12-1.49.23l-.05-.06c.23-1.04.56-2.83.74-3.9h4.18Z"/>
    <path class="cls-3" d="M42.41,41.7c.7-.28,1.22-.64,1.22-1.14,0-.45-.42-.6-.99-.72-.09-.01-.24-.18-.24-.43,0-.34.3-.68.87-.68s1.31.46,1.31,1.42c0,1.06-1.07,1.71-1.99,1.94l-.19-.39Z"/>
    <path class="cls-3" d="M47.96,32.3c2.27,0,3.1,2.2,3.1,4.18s-.83,4.19-3.1,4.19-3.13-2.17-3.13-4.18c0-1.89.85-4.19,3.13-4.19ZM47.95,32.77c-1.31,0-1.63,1.9-1.63,3.69s.4,3.74,1.64,3.74,1.6-1.92,1.6-3.73-.36-3.7-1.61-3.7Z"/>
    <path class="cls-3" d="M54,32.3c2.27,0,3.1,2.2,3.1,4.18s-.83,4.19-3.1,4.19-3.13-2.17-3.13-4.18c0-1.89.85-4.19,3.13-4.19ZM54,32.77c-1.31,0-1.63,1.9-1.63,3.69s.4,3.74,1.64,3.74,1.6-1.92,1.6-3.73-.36-3.7-1.61-3.7Z"/>
    <path class="cls-3" d="M60.04,32.3c2.27,0,3.1,2.2,3.1,4.18s-.83,4.19-3.1,4.19-3.13-2.17-3.13-4.18c0-1.89.85-4.19,3.13-4.19ZM60.04,32.77c-1.31,0-1.63,1.9-1.63,3.69s.4,3.74,1.64,3.74,1.6-1.92,1.6-3.73-.36-3.7-1.61-3.7Z"/>
  </g>
  <path class="cls-3" d="M105.71,212.09c-.2.6-.46,1.31-.6,1.8h-5.64v-.32c.81-.69,1.69-1.46,2.42-2.2.96-.98,1.78-1.99,1.78-3.09,0-1.05-.63-1.66-1.69-1.66-1,0-1.63.67-2.03,1.19l-.36-.28.86-1.08c.47-.46,1.2-.78,2.07-.78,1.42,0,2.55.85,2.55,2.25,0,1.08-.46,1.85-1.88,3.1-.62.56-1.54,1.33-2.15,1.84h2.76c.82,0,1.03-.06,1.54-.88l.38.11Z"/>
  <path class="cls-3" d="M116.72,207.24l.7-.82c.43-.41,1.11-.75,1.95-.75,1.38,0,2.27.76,2.27,1.74,0,.38-.19.7-.47.95-.24.22-.62.45-1.06.7,1.4.26,2.22,1.04,2.22,1.99,0,2.1-2.91,3-3.94,3-.7,0-1.33-.25-1.55-.45-.19-.17-.25-.3-.25-.45.01-.21.21-.42.35-.52.13-.09.28-.09.42.02.39.3,1,.71,1.85.71,1.01,0,1.73-.66,1.73-1.9-.01-1.19-1.01-1.66-1.93-1.66-.33,0-.73.07-.96.13l-.1-.4c1.32-.38,2.33-.88,2.33-1.83,0-.77-.57-1.2-1.39-1.2s-1.42.5-1.84,1.02l-.33-.27Z"/>
  <path class="cls-3" d="M138.33,211.55v.95c0,.84.06.91,1.13,1v.38h-3.59v-.38c1.09-.09,1.16-.18,1.16-1.02v-.93h-3.88v-.41c1.43-1.77,3-3.69,4.44-5.42h.74v5.19h1.43v.64h-1.43ZM137.04,207.15c-.89,1.13-1.92,2.44-2.94,3.76h2.94v-3.76Z"/>
  <path class="cls-3" d="M155.92,205.83l.09.11-.4.93h-3.45c-.13.68-.32,1.67-.46,2.28.59-.19,1.41-.38,1.78-.38,1.83,0,2.8,1.11,2.8,2.2,0,.78-.38,1.54-1.31,2.19-.81.56-1.85.9-2.65.9-.68,0-1.24-.23-1.54-.49-.23-.18-.28-.28-.26-.45,0-.13.13-.35.34-.48.14-.08.28-.1.44.01.42.33.95.73,1.87.73,1.18,0,1.74-.89,1.74-1.86,0-1.14-.8-1.95-2.39-1.95-.62,0-1.1.12-1.49.23l-.05-.06c.23-1.04.56-2.83.74-3.9h4.18Z"/>
  <path class="cls-3" d="M169.89,208.99c.32-.14.67-.22.95-.22,1.57,0,2.67,1.05,2.67,2.4,0,1.57-1.3,2.87-3.11,2.87s-3.12-1.25-3.12-3.25c0-2.66,2.31-4.32,4.08-4.85.35-.11,1.15-.26,1.77-.35l.09.44c-.46.09-1.15.26-1.6.44-.87.36-2.25,1.19-2.66,2.93l.95-.42ZM170.19,209.54c-.55,0-1.01.17-1.34.32-.06.23-.09.58-.09.91,0,1.63.69,2.79,1.89,2.79,1.11,0,1.44-1.05,1.44-1.91,0-1.1-.61-2.11-1.89-2.11Z"/>
  <path class="cls-3" d="M190.56,206c-1.42,2.62-2.81,5.24-4.23,7.91l-1.13.1-.11-.15c1.55-2.19,3.15-4.81,4.34-7h-3.15c-.97,0-1.04.11-1.44.95h-.48c.16-.78.23-1.43.3-1.99h5.8l.09.17Z"/>
  <path class="cls-3" d="M204.38,205.67c1.46,0,2.47.87,2.47,1.93,0,.38-.14.75-.43,1.04-.15.14-.57.4-1.2.8,1.02.49,2.02,1.11,2.02,2.24,0,1.54-1.62,2.37-3.03,2.37-1.7,0-2.92-.84-2.92-2.14,0-.65.33-1.01.67-1.26.25-.18.83-.52,1.33-.79-.94-.48-1.63-1.1-1.63-2.03,0-1.14,1.08-2.15,2.73-2.15ZM204.38,213.58c.96,0,1.55-.55,1.54-1.47,0-1.01-.94-1.5-2.18-2.04-.73.38-1.16.98-1.16,1.72,0,1.2.85,1.79,1.8,1.79ZM204.19,206.12c-.86,0-1.3.58-1.3,1.3,0,.93.73,1.29,1.88,1.81.53-.37.9-.81.9-1.56,0-1.1-.74-1.54-1.48-1.54Z"/>
  <path class="cls-3" d="M222.64,210.17l-.94.42c-.33.15-.61.2-.88.2-1.62,0-2.7-1.07-2.7-2.42,0-1.25,1.11-2.7,3.1-2.7s3.02,1.48,3.02,3.24c0,2.37-1.73,4.13-3.76,4.82-.6.21-1.4.32-1.83.35l-.12-.4c2.14-.37,3.64-1.58,4.11-3.51ZM221.01,206.14c-1.09,0-1.48.9-1.48,1.84,0,1.14.72,2.08,1.93,2.08.5,0,.95-.15,1.24-.34.05-.29.06-.61.06-.86,0-1.17-.38-2.72-1.75-2.72Z"/>
  <g>
    <path class="cls-3" d="M232.5,213.89v-.38c1.62-.09,1.71-.17,1.71-1.13v-4.92c0-.66-.13-.69-.77-.75l-.67-.06v-.34c1-.14,2.03-.35,2.81-.64v6.71c0,.98.09,1.04,1.72,1.13v.38h-4.79Z"/>
    <path class="cls-3" d="M241.5,205.67c2.27,0,3.1,2.2,3.1,4.18s-.83,4.19-3.1,4.19-3.13-2.17-3.13-4.18c0-1.89.85-4.19,3.13-4.19ZM241.5,206.14c-1.31,0-1.63,1.9-1.63,3.69s.4,3.74,1.64,3.74,1.6-1.92,1.6-3.73-.36-3.7-1.61-3.7Z"/>
  </g>
  <g>
    <line class="cls-1" x1="64.44" y1="202.45" x2="245.03" y2="202.45"/>
    <polygon class="cls-3" points="243.44 204.78 252.11 202.45 243.44 200.13 243.44 204.78"/>
  </g>
  <path class="cls-3" d="M252.85,201.41c.56-.92,1.12-1.4,1.52-1.4.35,0,.57.37.81,1.23l.18.64c.88-1.38,1.36-1.86,1.86-1.86.37,0,.56.3.55.6,0,.23-.18.54-.31.65-.11.1-.19.14-.29.14-.16-.02-.25-.35-.46-.35-.25,0-.65.44-1.21,1.33l.42,1.43c.19.63.33.9.5.9.15,0,.41-.17.8-.73l.21.33c-.58,1.04-1.22,1.45-1.63,1.45-.36,0-.61-.38-.9-1.38l-.25-.89c-.97,1.6-1.45,2.27-1.96,2.27-.33,0-.58-.27-.58-.67.02-.43.35-.82.57-.82.16,0,.28.36.47.36.2,0,.54-.38,1.36-1.64l-.28-1.04c-.2-.71-.32-.88-.44-.88-.11,0-.32.11-.68.64l-.25-.31Z"/>
  <path class="cls-3" d="M66.97,207.1c0,2.66-1.74,4.9-4.12,4.9-1.84,0-3.04-1.33-3.04-3.45,0-2.53,1.71-4.93,4.13-4.93,1.88,0,3.03,1.37,3.03,3.48ZM61.26,208.82c0,1.6.49,2.67,1.67,2.67,1.67,0,2.58-2.52,2.58-4.65,0-1.68-.43-2.71-1.65-2.71-1.55,0-2.6,2.39-2.6,4.69Z"/>
  <g>
    <line class="cls-1" x1="69" y1="206.48" x2="69" y2="27.48"/>
    <polygon class="cls-3" points="71.32 29.07 69 20.4 66.68 29.07 71.32 29.07"/>
  </g>
  <path class="cls-3" d="M66.99,14.33c.56-.69,1.47-1.35,2.09-1.35s.78.78.89,1.9c.11,1.06.15,2.17.2,2.93.74-.98,1.82-2.35,1.8-3.24,0-.29-.15-.58-.23-.74-.08-.17-.06-.28.06-.43.25-.27.61-.42.86-.42.36,0,.6.26.63.78,0,.37-.16.94-.55,1.53-1.22,1.87-3.31,4.41-5.18,6.24l-1.77.38-.15-.33c1.03-.56,2.4-1.51,3.19-2.41,0-.9-.19-2.81-.35-4.06-.11-.84-.26-1.04-.4-1.04-.15,0-.46.23-.85.62l-.26-.37Z"/>
</svg>