<svg xmlns="http://www.w3.org/2000/svg" id="_图层_1" data-name="图层 1" viewBox="0 0 295 236.5">
  <defs>
    <style>
      .cls-1 {
        stroke-width: 2px;
      }

      .cls-1, .cls-2 {
        fill: none;
        stroke: #231815;
        stroke-miterlimit: 10;
      }

      .cls-3 {
        fill: #231815;
        stroke-width: 0px;
      }
    </style>
  </defs>
  <line class="cls-2" x1="67.77" y1="38.44" x2="246.17" y2="38.44"/>
  <line class="cls-2" x1="89.77" y1="34.11" x2="89.77" y2="210.11"/>
  <line class="cls-2" x1="106.42" y1="34.11" x2="106.42" y2="210.11"/>
  <line class="cls-2" x1="123.5" y1="34.11" x2="123.5" y2="210.11"/>
  <line class="cls-2" x1="140.39" y1="34.11" x2="140.39" y2="210.11"/>
  <line class="cls-2" x1="157.28" y1="34.11" x2="157.28" y2="210.11"/>
  <line class="cls-2" x1="174.17" y1="34.11" x2="174.17" y2="210.11"/>
  <line class="cls-2" x1="191.06" y1="34.11" x2="191.06" y2="210.11"/>
  <line class="cls-2" x1="207.94" y1="34.11" x2="207.94" y2="210.11"/>
  <line class="cls-2" x1="224.83" y1="34.11" x2="224.83" y2="210.11"/>
  <line class="cls-2" x1="241.72" y1="34.11" x2="241.72" y2="210.11"/>
  <line class="cls-2" x1="67.77" y1="54.94" x2="246.17" y2="54.94"/>
  <line class="cls-2" x1="67.77" y1="72.44" x2="246.17" y2="72.44"/>
  <path class="cls-1" d="M162.11,210.27c-18.51-57.77-50.11-157.86-89.28-155.33"/>
  <line class="cls-2" x1="67.77" y1="88.94" x2="246.17" y2="88.94"/>
  <line class="cls-2" x1="67.77" y1="105.44" x2="246.17" y2="105.44"/>
  <line class="cls-2" x1="67.77" y1="122.94" x2="246.17" y2="122.94"/>
  <line class="cls-2" x1="67.77" y1="139.44" x2="246.17" y2="139.44"/>
  <line class="cls-2" x1="67.77" y1="155.94" x2="246.17" y2="155.94"/>
  <line class="cls-2" x1="67.77" y1="173.44" x2="246.17" y2="173.44"/>
  <line class="cls-2" x1="67.77" y1="189.94" x2="246.17" y2="189.94"/>
  <path class="cls-3" d="M87.18,218.33v-.38c1.62-.09,1.71-.17,1.71-1.13v-4.92c0-.66-.13-.69-.77-.75l-.67-.06v-.34c1-.14,2.03-.35,2.81-.64v6.71c0,.98.09,1.04,1.72,1.13v.38h-4.79Z"/>
  <g>
    <path class="cls-3" d="M53.23,188.34l.09.11-.4.93h-3.45c-.13.68-.33,1.67-.46,2.28.59-.19,1.41-.38,1.78-.38,1.83,0,2.8,1.11,2.8,2.2,0,.78-.38,1.54-1.31,2.19-.82.56-1.85.9-2.65.9-.67,0-1.24-.23-1.54-.49-.23-.18-.28-.28-.26-.45,0-.13.13-.35.34-.48.14-.08.29-.1.44.01.42.33.95.73,1.87.73,1.18,0,1.74-.89,1.74-1.86,0-1.14-.8-1.95-2.39-1.95-.62,0-1.1.12-1.49.23l-.05-.06c.24-1.04.57-2.83.74-3.9h4.18Z"/>
    <path class="cls-3" d="M57.43,188.18c2.27,0,3.1,2.2,3.1,4.18s-.83,4.19-3.1,4.19-3.13-2.17-3.13-4.18c0-1.89.85-4.19,3.13-4.19ZM57.43,188.65c-1.31,0-1.63,1.9-1.63,3.69s.4,3.74,1.64,3.74,1.6-1.92,1.6-3.73-.36-3.7-1.61-3.7Z"/>
    <path class="cls-3" d="M64.12,188.18c2.27,0,3.1,2.2,3.1,4.18s-.83,4.19-3.1,4.19-3.13-2.17-3.13-4.18c0-1.89.85-4.19,3.13-4.19ZM64.12,188.65c-1.31,0-1.63,1.9-1.63,3.69s.39,3.74,1.64,3.74,1.6-1.92,1.6-3.73-.36-3.7-1.61-3.7Z"/>
  </g>
  <g>
    <path class="cls-3" d="M40.89,179.29v-.38c1.62-.09,1.71-.17,1.71-1.13v-4.92c0-.66-.13-.69-.77-.75l-.67-.06v-.34c1-.14,2.03-.35,2.81-.64v6.71c0,.98.09,1.04,1.72,1.13v.38h-4.79Z"/>
    <path class="cls-3" d="M46.25,180.48c.7-.28,1.22-.64,1.22-1.14,0-.45-.42-.6-.99-.72-.09-.01-.24-.18-.24-.43,0-.34.3-.68.87-.68s1.31.46,1.31,1.42c0,1.06-1.07,1.71-1.99,1.94l-.19-.39Z"/>
    <path class="cls-3" d="M51.79,171.07c2.27,0,3.1,2.2,3.1,4.18s-.83,4.19-3.1,4.19-3.13-2.17-3.13-4.18c0-1.89.85-4.19,3.13-4.19ZM51.79,171.54c-1.31,0-1.63,1.9-1.63,3.69s.4,3.74,1.64,3.74,1.6-1.92,1.6-3.73-.36-3.7-1.61-3.7Z"/>
    <path class="cls-3" d="M57.83,171.07c2.27,0,3.1,2.2,3.1,4.18s-.83,4.19-3.1,4.19-3.13-2.17-3.13-4.18c0-1.89.85-4.19,3.13-4.19ZM57.83,171.54c-1.31,0-1.63,1.9-1.63,3.69s.4,3.74,1.64,3.74,1.6-1.92,1.6-3.73-.36-3.7-1.61-3.7Z"/>
    <path class="cls-3" d="M63.88,171.07c2.27,0,3.1,2.2,3.1,4.18s-.83,4.19-3.1,4.19-3.13-2.17-3.13-4.18c0-1.89.85-4.19,3.13-4.19ZM63.87,171.54c-1.31,0-1.63,1.9-1.63,3.69s.4,3.74,1.64,3.74,1.6-1.92,1.6-3.73-.36-3.7-1.61-3.7Z"/>
  </g>
  <g>
    <path class="cls-3" d="M40.89,162.62v-.38c1.62-.09,1.71-.17,1.71-1.13v-4.92c0-.66-.13-.69-.77-.75l-.67-.06v-.34c1-.14,2.03-.35,2.81-.64v6.71c0,.98.09,1.04,1.72,1.13v.38h-4.79Z"/>
    <path class="cls-3" d="M46.25,163.81c.7-.28,1.22-.64,1.22-1.14,0-.45-.42-.6-.99-.72-.09-.01-.24-.18-.24-.43,0-.34.3-.68.87-.68s1.31.46,1.31,1.42c0,1.06-1.07,1.71-1.99,1.94l-.19-.39Z"/>
    <path class="cls-3" d="M54.28,154.56l.09.11-.4.93h-3.45c-.13.68-.32,1.67-.46,2.28.59-.19,1.41-.38,1.78-.38,1.83,0,2.8,1.11,2.8,2.2,0,.78-.38,1.54-1.31,2.19-.81.56-1.85.9-2.65.9-.68,0-1.24-.23-1.54-.49-.22-.18-.28-.28-.26-.45,0-.13.13-.35.34-.48.14-.08.28-.1.44.01.42.33.95.73,1.88.73,1.18,0,1.74-.89,1.74-1.86,0-1.14-.8-1.95-2.38-1.95-.62,0-1.1.12-1.49.23l-.05-.06c.23-1.04.56-2.83.74-3.9h4.18Z"/>
    <path class="cls-3" d="M57.83,154.4c2.27,0,3.1,2.2,3.1,4.18s-.83,4.19-3.1,4.19-3.13-2.17-3.13-4.18c0-1.89.85-4.19,3.13-4.19ZM57.83,154.87c-1.31,0-1.63,1.9-1.63,3.69s.4,3.74,1.64,3.74,1.6-1.92,1.6-3.73-.36-3.7-1.61-3.7Z"/>
    <path class="cls-3" d="M63.88,154.4c2.27,0,3.1,2.2,3.1,4.18s-.83,4.19-3.1,4.19-3.13-2.17-3.13-4.18c0-1.89.85-4.19,3.13-4.19ZM63.87,154.87c-1.31,0-1.63,1.9-1.63,3.69s.4,3.74,1.64,3.74,1.6-1.92,1.6-3.73-.36-3.7-1.61-3.7Z"/>
  </g>
  <g>
    <path class="cls-3" d="M46.3,143.16c-.2.6-.46,1.31-.6,1.8h-5.64v-.32c.81-.69,1.69-1.46,2.42-2.2.96-.98,1.78-1.99,1.78-3.09,0-1.05-.63-1.66-1.69-1.66-1,0-1.63.67-2.03,1.19l-.36-.28.86-1.08c.47-.46,1.2-.78,2.07-.78,1.42,0,2.55.85,2.55,2.25,0,1.08-.46,1.85-1.88,3.1-.62.56-1.54,1.33-2.15,1.84h2.76c.82,0,1.03-.06,1.54-.88l.38.11Z"/>
    <path class="cls-3" d="M46.25,146.14c.7-.28,1.22-.64,1.22-1.14,0-.45-.42-.6-.99-.72-.09-.01-.24-.18-.24-.43,0-.34.3-.68.87-.68s1.31.46,1.31,1.42c0,1.06-1.07,1.71-1.99,1.94l-.19-.39Z"/>
    <path class="cls-3" d="M51.79,136.74c2.27,0,3.1,2.2,3.1,4.18s-.83,4.19-3.1,4.19-3.13-2.17-3.13-4.18c0-1.89.85-4.19,3.13-4.19ZM51.79,137.21c-1.31,0-1.63,1.9-1.63,3.69s.4,3.74,1.64,3.74,1.6-1.92,1.6-3.73-.36-3.7-1.61-3.7Z"/>
    <path class="cls-3" d="M57.83,136.74c2.27,0,3.1,2.2,3.1,4.18s-.83,4.19-3.1,4.19-3.13-2.17-3.13-4.18c0-1.89.85-4.19,3.13-4.19ZM57.83,137.21c-1.31,0-1.63,1.9-1.63,3.69s.4,3.74,1.64,3.74,1.6-1.92,1.6-3.73-.36-3.7-1.61-3.7Z"/>
    <path class="cls-3" d="M63.88,136.74c2.27,0,3.1,2.2,3.1,4.18s-.83,4.19-3.1,4.19-3.13-2.17-3.13-4.18c0-1.89.85-4.19,3.13-4.19ZM63.87,137.21c-1.31,0-1.63,1.9-1.63,3.69s.4,3.74,1.64,3.74,1.6-1.92,1.6-3.73-.36-3.7-1.61-3.7Z"/>
  </g>
  <g>
    <path class="cls-3" d="M46.3,126.49c-.2.6-.46,1.31-.6,1.8h-5.64v-.32c.81-.69,1.69-1.46,2.42-2.2.96-.98,1.78-1.99,1.78-3.09,0-1.05-.63-1.66-1.69-1.66-1,0-1.63.67-2.03,1.19l-.36-.28.86-1.08c.47-.46,1.2-.78,2.07-.78,1.42,0,2.55.85,2.55,2.25,0,1.08-.46,1.85-1.88,3.1-.62.56-1.54,1.33-2.15,1.84h2.76c.82,0,1.03-.06,1.54-.88l.38.11Z"/>
    <path class="cls-3" d="M46.25,129.48c.7-.28,1.22-.64,1.22-1.14,0-.45-.42-.6-.99-.72-.09-.01-.24-.18-.24-.43,0-.34.3-.68.87-.68s1.31.46,1.31,1.42c0,1.06-1.07,1.71-1.99,1.94l-.19-.39Z"/>
    <path class="cls-3" d="M54.28,120.22l.09.11-.4.93h-3.45c-.13.68-.32,1.67-.46,2.28.59-.19,1.41-.38,1.78-.38,1.83,0,2.8,1.11,2.8,2.2,0,.78-.38,1.54-1.31,2.19-.81.56-1.85.9-2.65.9-.68,0-1.24-.23-1.54-.49-.22-.18-.28-.28-.26-.45,0-.13.13-.35.34-.48.14-.08.28-.1.44.01.42.33.95.73,1.88.73,1.18,0,1.74-.89,1.74-1.86,0-1.14-.8-1.95-2.38-1.95-.62,0-1.1.12-1.49.23l-.05-.06c.23-1.04.56-2.83.74-3.9h4.18Z"/>
    <path class="cls-3" d="M57.83,120.07c2.27,0,3.1,2.2,3.1,4.18s-.83,4.19-3.1,4.19-3.13-2.17-3.13-4.18c0-1.89.85-4.19,3.13-4.19ZM57.83,120.54c-1.31,0-1.63,1.9-1.63,3.69s.4,3.74,1.64,3.74,1.6-1.92,1.6-3.73-.36-3.7-1.61-3.7Z"/>
    <path class="cls-3" d="M63.88,120.07c2.27,0,3.1,2.2,3.1,4.18s-.83,4.19-3.1,4.19-3.13-2.17-3.13-4.18c0-1.89.85-4.19,3.13-4.19ZM63.87,120.54c-1.31,0-1.63,1.9-1.63,3.69s.4,3.74,1.64,3.74,1.6-1.92,1.6-3.73-.36-3.7-1.61-3.7Z"/>
  </g>
  <g>
    <path class="cls-3" d="M40.37,104.98l.7-.82c.43-.41,1.11-.75,1.95-.75,1.38,0,2.26.76,2.26,1.74,0,.38-.19.7-.47.95-.24.22-.62.45-1.06.7,1.4.26,2.21,1.04,2.21,1.99,0,2.1-2.91,3-3.94,3-.7,0-1.33-.25-1.55-.45-.19-.17-.25-.3-.25-.45.01-.21.21-.42.35-.52.13-.09.28-.09.42.02.39.3,1,.71,1.85.71,1.01,0,1.73-.66,1.73-1.9-.01-1.19-1.01-1.66-1.93-1.66-.33,0-.73.07-.96.13l-.1-.4c1.32-.38,2.33-.88,2.33-1.83,0-.77-.57-1.2-1.39-1.2s-1.42.5-1.84,1.02l-.33-.27Z"/>
    <path class="cls-3" d="M46.25,112.81c.7-.28,1.22-.64,1.22-1.14,0-.45-.42-.6-.99-.72-.09-.01-.24-.18-.24-.43,0-.34.3-.68.87-.68s1.31.46,1.31,1.42c0,1.06-1.07,1.71-1.99,1.94l-.19-.39Z"/>
    <path class="cls-3" d="M51.79,103.4c2.27,0,3.1,2.2,3.1,4.18s-.83,4.19-3.1,4.19-3.13-2.17-3.13-4.18c0-1.89.85-4.19,3.13-4.19ZM51.79,103.87c-1.31,0-1.63,1.9-1.63,3.69s.4,3.74,1.64,3.74,1.6-1.92,1.6-3.73-.36-3.7-1.61-3.7Z"/>
    <path class="cls-3" d="M57.83,103.4c2.27,0,3.1,2.2,3.1,4.18s-.83,4.19-3.1,4.19-3.13-2.17-3.13-4.18c0-1.89.85-4.19,3.13-4.19ZM57.83,103.87c-1.31,0-1.63,1.9-1.63,3.69s.4,3.74,1.64,3.74,1.6-1.92,1.6-3.73-.36-3.7-1.61-3.7Z"/>
    <path class="cls-3" d="M63.88,103.4c2.27,0,3.1,2.2,3.1,4.18s-.83,4.19-3.1,4.19-3.13-2.17-3.13-4.18c0-1.89.85-4.19,3.13-4.19ZM63.87,103.87c-1.31,0-1.63,1.9-1.63,3.69s.4,3.74,1.64,3.74,1.6-1.92,1.6-3.73-.36-3.7-1.61-3.7Z"/>
  </g>
  <g>
    <path class="cls-3" d="M40.37,88.31l.7-.82c.43-.41,1.11-.75,1.95-.75,1.38,0,2.26.76,2.26,1.74,0,.38-.19.7-.47.95-.24.22-.62.45-1.06.7,1.4.26,2.21,1.04,2.21,1.99,0,2.1-2.91,3-3.94,3-.7,0-1.33-.25-1.55-.45-.19-.17-.25-.3-.25-.45.01-.21.21-.42.35-.52.13-.09.28-.09.42.02.39.3,1,.71,1.85.71,1.01,0,1.73-.66,1.73-1.9-.01-1.19-1.01-1.66-1.93-1.66-.33,0-.73.07-.96.13l-.1-.4c1.32-.38,2.33-.88,2.33-1.83,0-.77-.57-1.2-1.39-1.2s-1.42.5-1.84,1.02l-.33-.27Z"/>
    <path class="cls-3" d="M46.25,96.15c.7-.28,1.22-.64,1.22-1.14,0-.45-.42-.6-.99-.72-.09-.01-.24-.18-.24-.43,0-.34.3-.68.87-.68s1.31.46,1.31,1.42c0,1.06-1.07,1.71-1.99,1.94l-.19-.39Z"/>
    <path class="cls-3" d="M54.28,86.89l.09.11-.4.93h-3.45c-.13.68-.32,1.67-.46,2.28.59-.19,1.41-.38,1.78-.38,1.83,0,2.8,1.11,2.8,2.2,0,.78-.38,1.54-1.31,2.19-.81.56-1.85.9-2.65.9-.68,0-1.24-.23-1.54-.49-.22-.18-.28-.28-.26-.45,0-.13.13-.35.34-.48.14-.08.28-.1.44.01.42.33.95.73,1.88.73,1.18,0,1.74-.89,1.74-1.86,0-1.14-.8-1.95-2.38-1.95-.62,0-1.1.12-1.49.23l-.05-.06c.23-1.04.56-2.83.74-3.9h4.18Z"/>
    <path class="cls-3" d="M57.83,86.74c2.27,0,3.1,2.2,3.1,4.18s-.83,4.19-3.1,4.19-3.13-2.17-3.13-4.18c0-1.89.85-4.19,3.13-4.19ZM57.83,87.21c-1.31,0-1.63,1.9-1.63,3.69s.4,3.74,1.64,3.74,1.6-1.92,1.6-3.73-.36-3.7-1.61-3.7Z"/>
    <path class="cls-3" d="M63.88,86.74c2.27,0,3.1,2.2,3.1,4.18s-.83,4.19-3.1,4.19-3.13-2.17-3.13-4.18c0-1.89.85-4.19,3.13-4.19ZM63.87,87.21c-1.31,0-1.63,1.9-1.63,3.69s.4,3.74,1.64,3.74,1.6-1.92,1.6-3.73-.36-3.7-1.61-3.7Z"/>
  </g>
  <g>
    <path class="cls-3" d="M45.04,75.95v.95c0,.84.06.91,1.13,1v.38h-3.59v-.38c1.09-.09,1.16-.18,1.16-1.02v-.93h-3.88v-.41c1.43-1.77,3-3.69,4.44-5.42h.74v5.19h1.43v.64h-1.43ZM43.74,71.55c-.89,1.13-1.92,2.44-2.94,3.76h2.94v-3.76Z"/>
    <path class="cls-3" d="M46.25,79.48c.7-.28,1.22-.64,1.22-1.14,0-.45-.42-.6-.99-.72-.09-.01-.24-.18-.24-.43,0-.34.3-.68.87-.68s1.31.46,1.31,1.42c0,1.06-1.07,1.71-1.99,1.94l-.19-.39Z"/>
    <path class="cls-3" d="M51.79,70.07c2.27,0,3.1,2.2,3.1,4.18s-.83,4.19-3.1,4.19-3.13-2.17-3.13-4.18c0-1.89.85-4.19,3.13-4.19ZM51.79,70.54c-1.31,0-1.63,1.9-1.63,3.69s.4,3.74,1.64,3.74,1.6-1.92,1.6-3.73-.36-3.7-1.61-3.7Z"/>
    <path class="cls-3" d="M57.83,70.07c2.27,0,3.1,2.2,3.1,4.18s-.83,4.19-3.1,4.19-3.13-2.17-3.13-4.18c0-1.89.85-4.19,3.13-4.19ZM57.83,70.54c-1.31,0-1.63,1.9-1.63,3.69s.4,3.74,1.64,3.74,1.6-1.92,1.6-3.73-.36-3.7-1.61-3.7Z"/>
    <path class="cls-3" d="M63.88,70.07c2.27,0,3.1,2.2,3.1,4.18s-.83,4.19-3.1,4.19-3.13-2.17-3.13-4.18c0-1.89.85-4.19,3.13-4.19ZM63.87,70.54c-1.31,0-1.63,1.9-1.63,3.69s.4,3.74,1.64,3.74,1.6-1.92,1.6-3.73-.36-3.7-1.61-3.7Z"/>
  </g>
  <g>
    <path class="cls-3" d="M45.04,58.28v.95c0,.84.06.91,1.13,1v.38h-3.59v-.38c1.09-.09,1.16-.18,1.16-1.02v-.93h-3.88v-.41c1.43-1.77,3-3.69,4.44-5.42h.74v5.19h1.43v.64h-1.43ZM43.74,53.88c-.89,1.13-1.92,2.44-2.94,3.76h2.94v-3.76Z"/>
    <path class="cls-3" d="M46.25,61.81c.7-.28,1.22-.64,1.22-1.14,0-.45-.42-.6-.99-.72-.09-.01-.24-.18-.24-.43,0-.34.3-.68.87-.68s1.31.46,1.31,1.42c0,1.06-1.07,1.71-1.99,1.94l-.19-.39Z"/>
    <path class="cls-3" d="M54.28,52.56l.09.11-.4.93h-3.45c-.13.68-.32,1.67-.46,2.28.59-.19,1.41-.38,1.78-.38,1.83,0,2.8,1.11,2.8,2.2,0,.78-.38,1.54-1.31,2.19-.81.56-1.85.9-2.65.9-.68,0-1.24-.23-1.54-.49-.22-.18-.28-.28-.26-.45,0-.13.13-.35.34-.48.14-.08.28-.1.44.01.42.33.95.73,1.88.73,1.18,0,1.74-.89,1.74-1.86,0-1.14-.8-1.95-2.38-1.95-.62,0-1.1.12-1.49.23l-.05-.06c.23-1.04.56-2.83.74-3.9h4.18Z"/>
    <path class="cls-3" d="M57.83,52.4c2.27,0,3.1,2.2,3.1,4.18s-.83,4.19-3.1,4.19-3.13-2.17-3.13-4.18c0-1.89.85-4.19,3.13-4.19ZM57.83,52.87c-1.31,0-1.63,1.9-1.63,3.69s.4,3.74,1.64,3.74,1.6-1.92,1.6-3.73-.36-3.7-1.61-3.7Z"/>
    <path class="cls-3" d="M63.88,52.4c2.27,0,3.1,2.2,3.1,4.18s-.83,4.19-3.1,4.19-3.13-2.17-3.13-4.18c0-1.89.85-4.19,3.13-4.19ZM63.87,52.87c-1.31,0-1.63,1.9-1.63,3.69s.4,3.74,1.64,3.74,1.6-1.92,1.6-3.73-.36-3.7-1.61-3.7Z"/>
  </g>
  <g>
    <path class="cls-3" d="M45.68,36.89l.09.11-.4.93h-3.45c-.13.68-.33,1.67-.46,2.28.59-.19,1.41-.38,1.78-.38,1.83,0,2.8,1.11,2.8,2.2,0,.78-.38,1.54-1.31,2.19-.82.56-1.85.9-2.65.9-.67,0-1.24-.23-1.54-.49-.23-.18-.28-.28-.26-.45,0-.13.13-.35.34-.48.14-.08.29-.1.44.01.42.33.95.73,1.87.73,1.18,0,1.74-.89,1.74-1.86,0-1.14-.8-1.95-2.39-1.95-.62,0-1.1.12-1.49.23l-.05-.06c.24-1.04.57-2.83.74-3.9h4.18Z"/>
    <path class="cls-3" d="M46.25,46.15c.7-.28,1.22-.64,1.22-1.14,0-.45-.42-.6-.99-.72-.09-.01-.24-.18-.24-.43,0-.34.3-.68.87-.68s1.31.46,1.31,1.42c0,1.06-1.07,1.71-1.99,1.94l-.19-.39Z"/>
    <path class="cls-3" d="M51.79,36.74c2.27,0,3.1,2.2,3.1,4.18s-.83,4.19-3.1,4.19-3.13-2.17-3.13-4.18c0-1.89.85-4.19,3.13-4.19ZM51.79,37.21c-1.31,0-1.63,1.9-1.63,3.69s.4,3.74,1.64,3.74,1.6-1.92,1.6-3.73-.36-3.7-1.61-3.7Z"/>
    <path class="cls-3" d="M57.83,36.74c2.27,0,3.1,2.2,3.1,4.18s-.83,4.19-3.1,4.19-3.13-2.17-3.13-4.18c0-1.89.85-4.19,3.13-4.19ZM57.83,37.21c-1.31,0-1.63,1.9-1.63,3.69s.4,3.74,1.64,3.74,1.6-1.92,1.6-3.73-.36-3.7-1.61-3.7Z"/>
    <path class="cls-3" d="M63.88,36.74c2.27,0,3.1,2.2,3.1,4.18s-.83,4.19-3.1,4.19-3.13-2.17-3.13-4.18c0-1.89.85-4.19,3.13-4.19ZM63.87,37.21c-1.31,0-1.63,1.9-1.63,3.69s.4,3.74,1.64,3.74,1.6-1.92,1.6-3.73-.36-3.7-1.61-3.7Z"/>
  </g>
  <path class="cls-3" d="M109.54,216.53c-.2.6-.46,1.31-.6,1.8h-5.64v-.32c.81-.69,1.69-1.46,2.42-2.2.96-.98,1.78-1.99,1.78-3.09,0-1.05-.63-1.66-1.69-1.66-1,0-1.63.67-2.03,1.19l-.36-.28.86-1.08c.47-.46,1.2-.78,2.07-.78,1.42,0,2.55.85,2.55,2.25,0,1.08-.46,1.85-1.88,3.1-.62.56-1.54,1.33-2.15,1.84h2.76c.82,0,1.03-.06,1.54-.88l.38.11Z"/>
  <path class="cls-3" d="M120.56,211.69l.7-.82c.43-.41,1.11-.75,1.95-.75,1.38,0,2.26.76,2.26,1.74,0,.38-.19.7-.46.95-.24.22-.62.45-1.07.7,1.4.26,2.22,1.04,2.22,1.99,0,2.1-2.91,3-3.94,3-.7,0-1.33-.25-1.55-.45-.19-.17-.25-.3-.25-.45.01-.21.21-.42.35-.52.13-.09.28-.09.42.02.39.3,1,.71,1.85.71,1.01,0,1.73-.66,1.73-1.9-.01-1.19-1.01-1.66-1.93-1.66-.33,0-.73.07-.96.13l-.1-.4c1.32-.38,2.33-.88,2.33-1.83,0-.77-.57-1.2-1.39-1.2s-1.42.5-1.83,1.02l-.33-.27Z"/>
  <path class="cls-3" d="M142.17,215.99v.95c0,.84.06.91,1.13,1v.38h-3.59v-.38c1.09-.09,1.16-.18,1.16-1.02v-.93h-3.88v-.41c1.43-1.77,3-3.69,4.44-5.42h.74v5.19h1.43v.64h-1.43ZM140.87,211.59c-.89,1.13-1.92,2.44-2.94,3.76h2.94v-3.76Z"/>
  <path class="cls-3" d="M159.75,210.27l.09.11-.4.93h-3.45c-.13.68-.32,1.67-.46,2.28.59-.19,1.41-.38,1.78-.38,1.83,0,2.8,1.11,2.8,2.2,0,.78-.38,1.54-1.31,2.19-.81.56-1.85.9-2.65.9-.68,0-1.24-.23-1.54-.49-.22-.18-.28-.28-.26-.45,0-.13.13-.35.34-.48.14-.08.28-.1.44.01.42.33.95.73,1.88.73,1.18,0,1.74-.89,1.74-1.86,0-1.14-.8-1.95-2.38-1.95-.62,0-1.1.12-1.49.23l-.05-.06c.23-1.04.56-2.83.74-3.9h4.18Z"/>
  <path class="cls-3" d="M173.72,213.43c.32-.14.67-.22.95-.22,1.57,0,2.67,1.05,2.67,2.4,0,1.57-1.3,2.87-3.11,2.87s-3.12-1.25-3.12-3.25c0-2.66,2.31-4.32,4.08-4.85.35-.11,1.15-.26,1.77-.35l.09.44c-.46.09-1.15.26-1.6.44-.87.36-2.25,1.19-2.66,2.93l.95-.42ZM174.03,213.98c-.55,0-1.01.17-1.34.32-.06.23-.09.58-.09.91,0,1.63.69,2.79,1.89,2.79,1.11,0,1.44-1.05,1.44-1.91,0-1.1-.61-2.11-1.89-2.11Z"/>
  <path class="cls-3" d="M194.4,210.44c-1.42,2.62-2.81,5.24-4.23,7.91l-1.13.1-.11-.15c1.55-2.19,3.15-4.81,4.34-7h-3.15c-.97,0-1.04.11-1.44.95h-.48c.16-.78.22-1.43.3-1.99h5.8l.09.17Z"/>
  <path class="cls-3" d="M208.21,210.11c1.46,0,2.47.87,2.47,1.93,0,.38-.14.75-.43,1.04-.15.14-.57.4-1.2.8,1.02.49,2.02,1.11,2.02,2.24,0,1.54-1.62,2.37-3.03,2.37-1.7,0-2.92-.84-2.92-2.14,0-.65.33-1.01.67-1.26.25-.18.83-.52,1.33-.79-.94-.48-1.63-1.1-1.63-2.03,0-1.14,1.08-2.15,2.73-2.15ZM208.21,218.02c.96,0,1.55-.55,1.54-1.47,0-1.01-.94-1.5-2.18-2.04-.73.38-1.16.98-1.16,1.72,0,1.2.85,1.79,1.8,1.79ZM208.02,210.56c-.86,0-1.3.58-1.3,1.3,0,.93.73,1.29,1.88,1.81.53-.37.9-.81.9-1.56,0-1.1-.74-1.54-1.48-1.54Z"/>
  <path class="cls-3" d="M226.47,214.62l-.94.42c-.33.15-.61.2-.88.2-1.62,0-2.7-1.07-2.7-2.42,0-1.25,1.11-2.7,3.1-2.7s3.02,1.48,3.02,3.24c0,2.37-1.73,4.13-3.76,4.82-.6.21-1.4.32-1.83.35l-.12-.4c2.14-.37,3.64-1.58,4.11-3.51ZM224.85,210.58c-1.09,0-1.48.9-1.48,1.84,0,1.14.72,2.08,1.93,2.08.5,0,.94-.15,1.24-.34.05-.29.06-.61.06-.86,0-1.17-.37-2.72-1.75-2.72Z"/>
  <g>
    <path class="cls-3" d="M236.34,218.33v-.38c1.62-.09,1.71-.17,1.71-1.13v-4.92c0-.66-.13-.69-.77-.75l-.67-.06v-.34c1-.14,2.03-.35,2.81-.64v6.71c0,.98.09,1.04,1.72,1.13v.38h-4.78Z"/>
    <path class="cls-3" d="M245.33,210.11c2.27,0,3.1,2.2,3.1,4.18s-.83,4.19-3.1,4.19-3.13-2.17-3.13-4.18c0-1.89.85-4.19,3.13-4.19ZM245.33,210.58c-1.31,0-1.63,1.9-1.63,3.69s.39,3.74,1.64,3.74,1.6-1.92,1.6-3.73-.36-3.7-1.61-3.7Z"/>
  </g>
  <g>
    <line class="cls-1" x1="68.28" y1="206.9" x2="248.86" y2="206.9"/>
    <polygon class="cls-3" points="247.27 209.22 255.95 206.9 247.27 204.57 247.27 209.22"/>
  </g>
  <path class="cls-3" d="M256.69,205.85c.56-.92,1.12-1.4,1.52-1.4.35,0,.57.37.81,1.23l.18.64c.88-1.38,1.36-1.86,1.86-1.86.37,0,.56.3.55.6,0,.23-.18.54-.31.65-.11.1-.19.14-.29.14-.16-.02-.25-.35-.46-.35-.25,0-.65.44-1.21,1.33l.42,1.43c.19.63.33.9.5.9.15,0,.41-.17.8-.73l.21.33c-.58,1.04-1.22,1.45-1.63,1.45-.36,0-.61-.38-.9-1.38l-.25-.89c-.97,1.6-1.45,2.27-1.96,2.27-.33,0-.58-.27-.58-.67.02-.43.35-.82.57-.82.16,0,.28.36.47.36.2,0,.54-.38,1.36-1.64l-.28-1.04c-.2-.71-.32-.88-.44-.88-.11,0-.32.11-.68.64l-.25-.31Z"/>
  <path class="cls-3" d="M70.8,211.54c0,2.66-1.74,4.9-4.12,4.9-1.84,0-3.04-1.33-3.04-3.45,0-2.53,1.71-4.93,4.13-4.93,1.88,0,3.03,1.37,3.03,3.48ZM65.09,213.26c0,1.6.49,2.67,1.67,2.67,1.67,0,2.58-2.52,2.58-4.65,0-1.68-.43-2.71-1.65-2.71-1.55,0-2.6,2.39-2.6,4.69Z"/>
  <g>
    <line class="cls-1" x1="72.83" y1="210.93" x2="72.83" y2="31.92"/>
    <polygon class="cls-3" points="75.16 33.51 72.83 24.84 70.51 33.51 75.16 33.51"/>
  </g>
  <path class="cls-3" d="M70.82,18.77c.55-.69,1.47-1.35,2.09-1.35s.78.78.89,1.9c.11,1.06.15,2.17.2,2.93.74-.98,1.82-2.35,1.8-3.24,0-.29-.16-.58-.23-.74-.08-.17-.06-.28.06-.43.25-.27.61-.42.86-.42.36,0,.6.26.63.78,0,.37-.16.94-.55,1.53-1.22,1.87-3.31,4.41-5.18,6.24l-1.77.38-.15-.33c1.03-.56,2.4-1.51,3.19-2.41,0-.9-.19-2.81-.35-4.06-.11-.84-.26-1.04-.4-1.04-.15,0-.46.23-.85.62l-.26-.37Z"/>
</svg>